M48
; DRILL file {KiCad 7.0.0-da2b9df05c~171~ubuntu20.04.1} date Sun 14 May 2023 08:27:05 PM CEST
; FORMAT={-:-/ absolute / metric / decimal}
; #@! TF.CreationDate,2023-05-14T20:27:05+02:00
; #@! TF.GenerationSoftware,Kicad,Pcbnew,7.0.0-da2b9df05c~171~ubuntu20.04.1
; #@! TF.FileFunction,Plated,1,2,PTH
FMAT,2
METRIC
; #@! TA.AperFunction,Plated,PTH,ViaDrill
T1C0.400
; #@! TA.AperFunction,Plated,PTH,ComponentDrill
T2C0.800
; #@! TA.AperFunction,Plated,PTH,ComponentDrill
T3C0.900
; #@! TA.AperFunction,Plated,PTH,ComponentDrill
T4C1.000
; #@! TA.AperFunction,Plated,PTH,ComponentDrill
T5C1.100
; #@! TA.AperFunction,Plated,PTH,ComponentDrill
T6C1.300
%
G90
G05
T1
X108.956Y-62.982
X119.38Y-59.172
X119.38Y-82.032
X121.92Y-62.982
X121.92Y-79.492
X128.27Y-56.632
X128.27Y-59.172
X128.27Y-79.492
X128.27Y-82.032
T2
X58.156Y-79.492
X58.156Y-82.032
X58.156Y-84.572
X58.156Y-87.112
X58.156Y-89.652
X58.156Y-92.192
X58.156Y-94.732
X58.156Y-97.272
X64.546Y-102.352
X65.776Y-71.277
X65.776Y-76.277
X65.776Y-79.492
X65.776Y-82.032
X65.776Y-84.572
X65.776Y-87.112
X65.776Y-89.652
X65.776Y-92.192
X65.776Y-94.732
X65.776Y-97.272
X67.046Y-102.352
X69.586Y-78.222
X69.586Y-82.032
X69.586Y-87.112
X77.206Y-82.032
X79.746Y-78.222
X79.746Y-87.112
X83.556Y-82.032
X83.556Y-84.532
X89.535Y-82.667
X89.535Y-92.827
X89.906Y-106.797
X92.446Y-104.257
X92.446Y-109.337
X100.965Y-110.49
X100.965Y-120.65
X108.585Y-110.49
X108.585Y-120.65
X130.126Y-42.194
X130.126Y-47.194
X130.81Y-65.562
X130.81Y-70.562
X130.81Y-88.422
X130.81Y-93.422
X130.82Y-51.562
X130.82Y-54.102
X130.82Y-56.642
X130.82Y-59.182
X130.82Y-74.422
X130.82Y-76.962
X130.82Y-79.502
X130.82Y-82.042
X130.82Y-97.272
X130.82Y-99.812
X130.82Y-102.352
X130.82Y-104.892
X137.16Y-45.242
X137.16Y-47.742
X137.16Y-68.062
X137.16Y-70.562
X138.44Y-51.562
X138.44Y-54.102
X138.44Y-56.642
X138.44Y-59.182
X138.44Y-74.422
X138.44Y-76.962
X138.44Y-79.502
X138.44Y-82.042
X138.44Y-97.272
X138.44Y-99.812
X138.44Y-102.352
X138.44Y-104.892
X138.508Y-90.643
X138.508Y-93.143
X144.526Y-104.775
X144.526Y-114.935
X144.653Y-84.836
X144.653Y-94.996
X144.78Y-38.735
X144.78Y-48.895
X144.78Y-59.055
X144.78Y-69.215
X148.326Y-42.702
X148.326Y-47.702
X148.326Y-60.482
X148.326Y-65.482
X148.326Y-88.422
X148.326Y-93.422
X148.326Y-99.812
X148.326Y-106.202
X148.326Y-111.202
X148.366Y-54.092
X152.136Y-38.852
X152.136Y-49.012
X152.136Y-59.172
X152.136Y-69.332
X152.136Y-84.572
X152.136Y-94.732
X152.136Y-104.892
X152.136Y-115.052
X153.326Y-99.812
X153.366Y-54.092
X157.216Y-40.162
X157.216Y-42.662
X157.216Y-46.472
X157.216Y-49.012
X157.216Y-51.552
X157.216Y-54.092
X157.216Y-56.632
X157.216Y-59.172
X157.216Y-61.712
X157.216Y-92.192
X157.216Y-94.732
X157.216Y-97.272
X157.216Y-99.812
X157.216Y-102.352
X157.216Y-104.892
X157.216Y-107.432
X164.836Y-46.472
X164.836Y-49.012
X164.836Y-51.552
X164.836Y-54.092
X164.836Y-56.632
X164.836Y-59.172
X164.836Y-61.712
X164.836Y-92.192
X164.836Y-94.732
X164.836Y-97.272
X164.836Y-99.812
X164.836Y-102.352
X164.836Y-104.892
X164.836Y-107.432
X168.646Y-57.267
X168.646Y-67.427
X168.646Y-85.842
X168.646Y-96.002
X169.916Y-104.892
X169.916Y-107.392
X172.456Y-59.172
X172.456Y-69.332
X172.456Y-84.572
X172.456Y-94.732
X172.456Y-97.352
X172.456Y-102.352
X174.996Y-51.592
X174.996Y-56.592
X177.536Y-49.012
X177.536Y-61.712
X177.536Y-74.412
X177.536Y-87.112
X177.536Y-99.812
X177.536Y-112.512
X183.886Y-45.202
X183.886Y-57.902
X183.886Y-70.602
X183.886Y-83.302
X183.886Y-96.002
X183.886Y-108.702
X186.426Y-45.202
X186.426Y-57.902
X186.426Y-70.602
X186.426Y-83.302
X186.426Y-96.002
X186.426Y-108.702
X187.696Y-49.012
X187.696Y-61.712
X187.696Y-74.412
X187.696Y-87.112
X187.696Y-99.812
X187.696Y-112.512
X190.226Y-42.242
X190.226Y-48.592
X190.226Y-54.942
X190.226Y-61.292
X190.226Y-67.642
X190.226Y-73.992
X190.226Y-80.342
X190.226Y-86.692
X190.226Y-93.042
X190.226Y-99.392
X190.226Y-105.742
X190.226Y-112.092
X192.766Y-39.702
X192.766Y-46.052
X192.766Y-52.402
X192.766Y-58.752
X192.766Y-65.102
X192.766Y-71.452
X192.766Y-77.802
X192.766Y-84.152
X192.766Y-90.502
X192.766Y-96.852
X192.766Y-103.202
X192.766Y-109.552
X195.306Y-42.242
X195.306Y-48.592
X195.306Y-54.942
X195.306Y-61.292
X195.306Y-67.642
X195.306Y-73.992
X195.306Y-80.342
X195.306Y-86.692
X195.306Y-93.042
X195.306Y-99.392
X195.306Y-105.742
X195.306Y-112.092
T3
X92.446Y-99.177
X92.446Y-101.717
X100.965Y-105.41
X100.965Y-107.95
X108.585Y-105.41
X108.585Y-107.95
T4
X84.826Y-45.202
X84.826Y-47.742
X84.826Y-50.282
X84.826Y-52.822
X84.826Y-55.362
X84.826Y-57.902
X84.826Y-60.442
X84.826Y-62.982
X84.826Y-65.522
X84.826Y-68.062
X84.826Y-70.602
X105.146Y-45.202
X105.146Y-47.742
X105.146Y-50.282
X105.146Y-52.822
X105.146Y-55.362
X105.146Y-57.902
X105.146Y-60.442
X105.146Y-62.982
X105.146Y-65.522
X105.146Y-68.062
X105.146Y-70.602
T5
X85.09Y-115.57
X93.98Y-82.667
X93.98Y-92.827
X95.25Y-115.57
X114.935Y-110.49
X114.935Y-120.65
T6
X74.706Y-97.577
X79.706Y-97.577
X106.69Y-81.93
X106.69Y-92.09
X106.69Y-99.71
X114.31Y-81.93
X114.31Y-97.17
X204.216Y-65.692
X204.216Y-70.692
X204.216Y-75.692
X204.216Y-80.692
X204.216Y-85.692
X204.216Y-90.692
T0
M30
