%TF.GenerationSoftware,KiCad,Pcbnew,7.0.0-da2b9df05c~171~ubuntu20.04.1*%
%TF.CreationDate,2023-05-14T20:27:18+02:00*%
%TF.ProjectId,cpumeter,6370756d-6574-4657-922e-6b696361645f,v01*%
%TF.SameCoordinates,Original*%
%TF.FileFunction,Drillmap*%
%TF.FilePolarity,Positive*%
%FSLAX45Y45*%
G04 Gerber Fmt 4.5, Leading zero omitted, Abs format (unit mm)*
G04 Created by KiCad (PCBNEW 7.0.0-da2b9df05c~171~ubuntu20.04.1) date 2023-05-14 20:27:18*
%MOMM*%
%LPD*%
G01*
G04 APERTURE LIST*
%ADD10C,0.100000*%
%ADD11C,0.200000*%
%ADD12C,0.320000*%
G04 APERTURE END LIST*
D10*
X5529600Y-3417200D02*
X21529600Y-3417200D01*
X21529600Y-3417200D02*
X21529600Y-12417200D01*
X21529600Y-12417200D02*
X5529600Y-12417200D01*
X5529600Y-12417200D02*
X5529600Y-3417200D01*
D11*
D12*
X6037600Y-3853200D02*
X6357600Y-4173200D01*
X6357600Y-3853200D02*
X6037600Y-4173200D01*
X6037600Y-11473200D02*
X6357600Y-11793200D01*
X6357600Y-11473200D02*
X6037600Y-11793200D01*
X20769600Y-3853200D02*
X21089600Y-4173200D01*
X21089600Y-3853200D02*
X20769600Y-4173200D01*
X20769600Y-11473200D02*
X21089600Y-11793200D01*
X21089600Y-11473200D02*
X20769600Y-11793200D01*
D11*
X5772219Y-12715676D02*
X5772219Y-12515676D01*
X5772219Y-12515676D02*
X5819838Y-12515676D01*
X5819838Y-12515676D02*
X5848409Y-12525200D01*
X5848409Y-12525200D02*
X5867457Y-12544248D01*
X5867457Y-12544248D02*
X5876981Y-12563295D01*
X5876981Y-12563295D02*
X5886505Y-12601390D01*
X5886505Y-12601390D02*
X5886505Y-12629962D01*
X5886505Y-12629962D02*
X5876981Y-12668057D01*
X5876981Y-12668057D02*
X5867457Y-12687105D01*
X5867457Y-12687105D02*
X5848409Y-12706152D01*
X5848409Y-12706152D02*
X5819838Y-12715676D01*
X5819838Y-12715676D02*
X5772219Y-12715676D01*
X5972219Y-12715676D02*
X5972219Y-12582343D01*
X5972219Y-12620438D02*
X5981743Y-12601390D01*
X5981743Y-12601390D02*
X5991267Y-12591867D01*
X5991267Y-12591867D02*
X6010314Y-12582343D01*
X6010314Y-12582343D02*
X6029362Y-12582343D01*
X6096028Y-12715676D02*
X6096028Y-12582343D01*
X6096028Y-12515676D02*
X6086505Y-12525200D01*
X6086505Y-12525200D02*
X6096028Y-12534724D01*
X6096028Y-12534724D02*
X6105552Y-12525200D01*
X6105552Y-12525200D02*
X6096028Y-12515676D01*
X6096028Y-12515676D02*
X6096028Y-12534724D01*
X6219838Y-12715676D02*
X6200790Y-12706152D01*
X6200790Y-12706152D02*
X6191267Y-12687105D01*
X6191267Y-12687105D02*
X6191267Y-12515676D01*
X6324600Y-12715676D02*
X6305552Y-12706152D01*
X6305552Y-12706152D02*
X6296028Y-12687105D01*
X6296028Y-12687105D02*
X6296028Y-12515676D01*
X6520790Y-12715676D02*
X6520790Y-12515676D01*
X6520790Y-12515676D02*
X6587457Y-12658533D01*
X6587457Y-12658533D02*
X6654124Y-12515676D01*
X6654124Y-12515676D02*
X6654124Y-12715676D01*
X6835076Y-12715676D02*
X6835076Y-12610914D01*
X6835076Y-12610914D02*
X6825552Y-12591867D01*
X6825552Y-12591867D02*
X6806505Y-12582343D01*
X6806505Y-12582343D02*
X6768409Y-12582343D01*
X6768409Y-12582343D02*
X6749362Y-12591867D01*
X6835076Y-12706152D02*
X6816028Y-12715676D01*
X6816028Y-12715676D02*
X6768409Y-12715676D01*
X6768409Y-12715676D02*
X6749362Y-12706152D01*
X6749362Y-12706152D02*
X6739838Y-12687105D01*
X6739838Y-12687105D02*
X6739838Y-12668057D01*
X6739838Y-12668057D02*
X6749362Y-12649009D01*
X6749362Y-12649009D02*
X6768409Y-12639486D01*
X6768409Y-12639486D02*
X6816028Y-12639486D01*
X6816028Y-12639486D02*
X6835076Y-12629962D01*
X6930314Y-12582343D02*
X6930314Y-12782343D01*
X6930314Y-12591867D02*
X6949362Y-12582343D01*
X6949362Y-12582343D02*
X6987457Y-12582343D01*
X6987457Y-12582343D02*
X7006505Y-12591867D01*
X7006505Y-12591867D02*
X7016028Y-12601390D01*
X7016028Y-12601390D02*
X7025552Y-12620438D01*
X7025552Y-12620438D02*
X7025552Y-12677581D01*
X7025552Y-12677581D02*
X7016028Y-12696628D01*
X7016028Y-12696628D02*
X7006505Y-12706152D01*
X7006505Y-12706152D02*
X6987457Y-12715676D01*
X6987457Y-12715676D02*
X6949362Y-12715676D01*
X6949362Y-12715676D02*
X6930314Y-12706152D01*
X7111267Y-12696628D02*
X7120790Y-12706152D01*
X7120790Y-12706152D02*
X7111267Y-12715676D01*
X7111267Y-12715676D02*
X7101743Y-12706152D01*
X7101743Y-12706152D02*
X7111267Y-12696628D01*
X7111267Y-12696628D02*
X7111267Y-12715676D01*
X7111267Y-12591867D02*
X7120790Y-12601390D01*
X7120790Y-12601390D02*
X7111267Y-12610914D01*
X7111267Y-12610914D02*
X7101743Y-12601390D01*
X7101743Y-12601390D02*
X7111267Y-12591867D01*
X7111267Y-12591867D02*
X7111267Y-12610914D01*
X5324600Y-12962200D02*
X5524600Y-13162200D01*
X5524600Y-12962200D02*
X5324600Y-13162200D01*
X5753171Y-12935676D02*
X5876981Y-12935676D01*
X5876981Y-12935676D02*
X5810314Y-13011867D01*
X5810314Y-13011867D02*
X5838886Y-13011867D01*
X5838886Y-13011867D02*
X5857933Y-13021390D01*
X5857933Y-13021390D02*
X5867457Y-13030914D01*
X5867457Y-13030914D02*
X5876981Y-13049962D01*
X5876981Y-13049962D02*
X5876981Y-13097581D01*
X5876981Y-13097581D02*
X5867457Y-13116628D01*
X5867457Y-13116628D02*
X5857933Y-13126152D01*
X5857933Y-13126152D02*
X5838886Y-13135676D01*
X5838886Y-13135676D02*
X5781743Y-13135676D01*
X5781743Y-13135676D02*
X5762695Y-13126152D01*
X5762695Y-13126152D02*
X5753171Y-13116628D01*
X5962695Y-13116628D02*
X5972219Y-13126152D01*
X5972219Y-13126152D02*
X5962695Y-13135676D01*
X5962695Y-13135676D02*
X5953171Y-13126152D01*
X5953171Y-13126152D02*
X5962695Y-13116628D01*
X5962695Y-13116628D02*
X5962695Y-13135676D01*
X6048409Y-12954724D02*
X6057933Y-12945200D01*
X6057933Y-12945200D02*
X6076981Y-12935676D01*
X6076981Y-12935676D02*
X6124600Y-12935676D01*
X6124600Y-12935676D02*
X6143648Y-12945200D01*
X6143648Y-12945200D02*
X6153171Y-12954724D01*
X6153171Y-12954724D02*
X6162695Y-12973771D01*
X6162695Y-12973771D02*
X6162695Y-12992819D01*
X6162695Y-12992819D02*
X6153171Y-13021390D01*
X6153171Y-13021390D02*
X6038886Y-13135676D01*
X6038886Y-13135676D02*
X6162695Y-13135676D01*
X6286505Y-12935676D02*
X6305552Y-12935676D01*
X6305552Y-12935676D02*
X6324600Y-12945200D01*
X6324600Y-12945200D02*
X6334124Y-12954724D01*
X6334124Y-12954724D02*
X6343648Y-12973771D01*
X6343648Y-12973771D02*
X6353171Y-13011867D01*
X6353171Y-13011867D02*
X6353171Y-13059486D01*
X6353171Y-13059486D02*
X6343648Y-13097581D01*
X6343648Y-13097581D02*
X6334124Y-13116628D01*
X6334124Y-13116628D02*
X6324600Y-13126152D01*
X6324600Y-13126152D02*
X6305552Y-13135676D01*
X6305552Y-13135676D02*
X6286505Y-13135676D01*
X6286505Y-13135676D02*
X6267457Y-13126152D01*
X6267457Y-13126152D02*
X6257933Y-13116628D01*
X6257933Y-13116628D02*
X6248409Y-13097581D01*
X6248409Y-13097581D02*
X6238886Y-13059486D01*
X6238886Y-13059486D02*
X6238886Y-13011867D01*
X6238886Y-13011867D02*
X6248409Y-12973771D01*
X6248409Y-12973771D02*
X6257933Y-12954724D01*
X6257933Y-12954724D02*
X6267457Y-12945200D01*
X6267457Y-12945200D02*
X6286505Y-12935676D01*
X6476981Y-12935676D02*
X6496029Y-12935676D01*
X6496029Y-12935676D02*
X6515076Y-12945200D01*
X6515076Y-12945200D02*
X6524600Y-12954724D01*
X6524600Y-12954724D02*
X6534124Y-12973771D01*
X6534124Y-12973771D02*
X6543648Y-13011867D01*
X6543648Y-13011867D02*
X6543648Y-13059486D01*
X6543648Y-13059486D02*
X6534124Y-13097581D01*
X6534124Y-13097581D02*
X6524600Y-13116628D01*
X6524600Y-13116628D02*
X6515076Y-13126152D01*
X6515076Y-13126152D02*
X6496029Y-13135676D01*
X6496029Y-13135676D02*
X6476981Y-13135676D01*
X6476981Y-13135676D02*
X6457933Y-13126152D01*
X6457933Y-13126152D02*
X6448409Y-13116628D01*
X6448409Y-13116628D02*
X6438886Y-13097581D01*
X6438886Y-13097581D02*
X6429362Y-13059486D01*
X6429362Y-13059486D02*
X6429362Y-13011867D01*
X6429362Y-13011867D02*
X6438886Y-12973771D01*
X6438886Y-12973771D02*
X6448409Y-12954724D01*
X6448409Y-12954724D02*
X6457933Y-12945200D01*
X6457933Y-12945200D02*
X6476981Y-12935676D01*
X6629362Y-13135676D02*
X6629362Y-13002343D01*
X6629362Y-13021390D02*
X6638886Y-13011867D01*
X6638886Y-13011867D02*
X6657933Y-13002343D01*
X6657933Y-13002343D02*
X6686505Y-13002343D01*
X6686505Y-13002343D02*
X6705552Y-13011867D01*
X6705552Y-13011867D02*
X6715076Y-13030914D01*
X6715076Y-13030914D02*
X6715076Y-13135676D01*
X6715076Y-13030914D02*
X6724600Y-13011867D01*
X6724600Y-13011867D02*
X6743648Y-13002343D01*
X6743648Y-13002343D02*
X6772219Y-13002343D01*
X6772219Y-13002343D02*
X6791267Y-13011867D01*
X6791267Y-13011867D02*
X6800790Y-13030914D01*
X6800790Y-13030914D02*
X6800790Y-13135676D01*
X6896029Y-13135676D02*
X6896029Y-13002343D01*
X6896029Y-13021390D02*
X6905552Y-13011867D01*
X6905552Y-13011867D02*
X6924600Y-13002343D01*
X6924600Y-13002343D02*
X6953171Y-13002343D01*
X6953171Y-13002343D02*
X6972219Y-13011867D01*
X6972219Y-13011867D02*
X6981743Y-13030914D01*
X6981743Y-13030914D02*
X6981743Y-13135676D01*
X6981743Y-13030914D02*
X6991267Y-13011867D01*
X6991267Y-13011867D02*
X7010314Y-13002343D01*
X7010314Y-13002343D02*
X7038886Y-13002343D01*
X7038886Y-13002343D02*
X7057933Y-13011867D01*
X7057933Y-13011867D02*
X7067457Y-13030914D01*
X7067457Y-13030914D02*
X7067457Y-13135676D01*
X7425552Y-12926152D02*
X7254124Y-13183295D01*
X7650314Y-12935676D02*
X7669362Y-12935676D01*
X7669362Y-12935676D02*
X7688410Y-12945200D01*
X7688410Y-12945200D02*
X7697933Y-12954724D01*
X7697933Y-12954724D02*
X7707457Y-12973771D01*
X7707457Y-12973771D02*
X7716981Y-13011867D01*
X7716981Y-13011867D02*
X7716981Y-13059486D01*
X7716981Y-13059486D02*
X7707457Y-13097581D01*
X7707457Y-13097581D02*
X7697933Y-13116628D01*
X7697933Y-13116628D02*
X7688410Y-13126152D01*
X7688410Y-13126152D02*
X7669362Y-13135676D01*
X7669362Y-13135676D02*
X7650314Y-13135676D01*
X7650314Y-13135676D02*
X7631267Y-13126152D01*
X7631267Y-13126152D02*
X7621743Y-13116628D01*
X7621743Y-13116628D02*
X7612219Y-13097581D01*
X7612219Y-13097581D02*
X7602695Y-13059486D01*
X7602695Y-13059486D02*
X7602695Y-13011867D01*
X7602695Y-13011867D02*
X7612219Y-12973771D01*
X7612219Y-12973771D02*
X7621743Y-12954724D01*
X7621743Y-12954724D02*
X7631267Y-12945200D01*
X7631267Y-12945200D02*
X7650314Y-12935676D01*
X7802695Y-13116628D02*
X7812219Y-13126152D01*
X7812219Y-13126152D02*
X7802695Y-13135676D01*
X7802695Y-13135676D02*
X7793171Y-13126152D01*
X7793171Y-13126152D02*
X7802695Y-13116628D01*
X7802695Y-13116628D02*
X7802695Y-13135676D01*
X8002695Y-13135676D02*
X7888410Y-13135676D01*
X7945552Y-13135676D02*
X7945552Y-12935676D01*
X7945552Y-12935676D02*
X7926505Y-12964248D01*
X7926505Y-12964248D02*
X7907457Y-12983295D01*
X7907457Y-12983295D02*
X7888410Y-12992819D01*
X8078886Y-12954724D02*
X8088410Y-12945200D01*
X8088410Y-12945200D02*
X8107457Y-12935676D01*
X8107457Y-12935676D02*
X8155076Y-12935676D01*
X8155076Y-12935676D02*
X8174124Y-12945200D01*
X8174124Y-12945200D02*
X8183648Y-12954724D01*
X8183648Y-12954724D02*
X8193171Y-12973771D01*
X8193171Y-12973771D02*
X8193171Y-12992819D01*
X8193171Y-12992819D02*
X8183648Y-13021390D01*
X8183648Y-13021390D02*
X8069362Y-13135676D01*
X8069362Y-13135676D02*
X8193171Y-13135676D01*
X8364600Y-12935676D02*
X8326505Y-12935676D01*
X8326505Y-12935676D02*
X8307457Y-12945200D01*
X8307457Y-12945200D02*
X8297933Y-12954724D01*
X8297933Y-12954724D02*
X8278886Y-12983295D01*
X8278886Y-12983295D02*
X8269362Y-13021390D01*
X8269362Y-13021390D02*
X8269362Y-13097581D01*
X8269362Y-13097581D02*
X8278886Y-13116628D01*
X8278886Y-13116628D02*
X8288410Y-13126152D01*
X8288410Y-13126152D02*
X8307457Y-13135676D01*
X8307457Y-13135676D02*
X8345552Y-13135676D01*
X8345552Y-13135676D02*
X8364600Y-13126152D01*
X8364600Y-13126152D02*
X8374124Y-13116628D01*
X8374124Y-13116628D02*
X8383648Y-13097581D01*
X8383648Y-13097581D02*
X8383648Y-13049962D01*
X8383648Y-13049962D02*
X8374124Y-13030914D01*
X8374124Y-13030914D02*
X8364600Y-13021390D01*
X8364600Y-13021390D02*
X8345552Y-13011867D01*
X8345552Y-13011867D02*
X8307457Y-13011867D01*
X8307457Y-13011867D02*
X8288410Y-13021390D01*
X8288410Y-13021390D02*
X8278886Y-13030914D01*
X8278886Y-13030914D02*
X8269362Y-13049962D01*
X8507457Y-12935676D02*
X8526505Y-12935676D01*
X8526505Y-12935676D02*
X8545553Y-12945200D01*
X8545553Y-12945200D02*
X8555076Y-12954724D01*
X8555076Y-12954724D02*
X8564600Y-12973771D01*
X8564600Y-12973771D02*
X8574124Y-13011867D01*
X8574124Y-13011867D02*
X8574124Y-13059486D01*
X8574124Y-13059486D02*
X8564600Y-13097581D01*
X8564600Y-13097581D02*
X8555076Y-13116628D01*
X8555076Y-13116628D02*
X8545553Y-13126152D01*
X8545553Y-13126152D02*
X8526505Y-13135676D01*
X8526505Y-13135676D02*
X8507457Y-13135676D01*
X8507457Y-13135676D02*
X8488410Y-13126152D01*
X8488410Y-13126152D02*
X8478886Y-13116628D01*
X8478886Y-13116628D02*
X8469362Y-13097581D01*
X8469362Y-13097581D02*
X8459838Y-13059486D01*
X8459838Y-13059486D02*
X8459838Y-13011867D01*
X8459838Y-13011867D02*
X8469362Y-12973771D01*
X8469362Y-12973771D02*
X8478886Y-12954724D01*
X8478886Y-12954724D02*
X8488410Y-12945200D01*
X8488410Y-12945200D02*
X8507457Y-12935676D01*
X8650314Y-12935676D02*
X8650314Y-12973771D01*
X8726505Y-12935676D02*
X8726505Y-12973771D01*
X8989362Y-13211867D02*
X8979838Y-13202343D01*
X8979838Y-13202343D02*
X8960791Y-13173771D01*
X8960791Y-13173771D02*
X8951267Y-13154724D01*
X8951267Y-13154724D02*
X8941743Y-13126152D01*
X8941743Y-13126152D02*
X8932219Y-13078533D01*
X8932219Y-13078533D02*
X8932219Y-13040438D01*
X8932219Y-13040438D02*
X8941743Y-12992819D01*
X8941743Y-12992819D02*
X8951267Y-12964248D01*
X8951267Y-12964248D02*
X8960791Y-12945200D01*
X8960791Y-12945200D02*
X8979838Y-12916628D01*
X8979838Y-12916628D02*
X8989362Y-12907105D01*
X9151267Y-13002343D02*
X9151267Y-13135676D01*
X9103648Y-12926152D02*
X9056029Y-13069009D01*
X9056029Y-13069009D02*
X9179838Y-13069009D01*
X9376029Y-13135676D02*
X9376029Y-12935676D01*
X9461743Y-13135676D02*
X9461743Y-13030914D01*
X9461743Y-13030914D02*
X9452219Y-13011867D01*
X9452219Y-13011867D02*
X9433172Y-13002343D01*
X9433172Y-13002343D02*
X9404600Y-13002343D01*
X9404600Y-13002343D02*
X9385553Y-13011867D01*
X9385553Y-13011867D02*
X9376029Y-13021390D01*
X9585553Y-13135676D02*
X9566505Y-13126152D01*
X9566505Y-13126152D02*
X9556981Y-13116628D01*
X9556981Y-13116628D02*
X9547457Y-13097581D01*
X9547457Y-13097581D02*
X9547457Y-13040438D01*
X9547457Y-13040438D02*
X9556981Y-13021390D01*
X9556981Y-13021390D02*
X9566505Y-13011867D01*
X9566505Y-13011867D02*
X9585553Y-13002343D01*
X9585553Y-13002343D02*
X9614124Y-13002343D01*
X9614124Y-13002343D02*
X9633172Y-13011867D01*
X9633172Y-13011867D02*
X9642695Y-13021390D01*
X9642695Y-13021390D02*
X9652219Y-13040438D01*
X9652219Y-13040438D02*
X9652219Y-13097581D01*
X9652219Y-13097581D02*
X9642695Y-13116628D01*
X9642695Y-13116628D02*
X9633172Y-13126152D01*
X9633172Y-13126152D02*
X9614124Y-13135676D01*
X9614124Y-13135676D02*
X9585553Y-13135676D01*
X9766505Y-13135676D02*
X9747457Y-13126152D01*
X9747457Y-13126152D02*
X9737934Y-13107105D01*
X9737934Y-13107105D02*
X9737934Y-12935676D01*
X9918886Y-13126152D02*
X9899838Y-13135676D01*
X9899838Y-13135676D02*
X9861743Y-13135676D01*
X9861743Y-13135676D02*
X9842695Y-13126152D01*
X9842695Y-13126152D02*
X9833172Y-13107105D01*
X9833172Y-13107105D02*
X9833172Y-13030914D01*
X9833172Y-13030914D02*
X9842695Y-13011867D01*
X9842695Y-13011867D02*
X9861743Y-13002343D01*
X9861743Y-13002343D02*
X9899838Y-13002343D01*
X9899838Y-13002343D02*
X9918886Y-13011867D01*
X9918886Y-13011867D02*
X9928410Y-13030914D01*
X9928410Y-13030914D02*
X9928410Y-13049962D01*
X9928410Y-13049962D02*
X9833172Y-13069009D01*
X10004600Y-13126152D02*
X10023648Y-13135676D01*
X10023648Y-13135676D02*
X10061743Y-13135676D01*
X10061743Y-13135676D02*
X10080791Y-13126152D01*
X10080791Y-13126152D02*
X10090315Y-13107105D01*
X10090315Y-13107105D02*
X10090315Y-13097581D01*
X10090315Y-13097581D02*
X10080791Y-13078533D01*
X10080791Y-13078533D02*
X10061743Y-13069009D01*
X10061743Y-13069009D02*
X10033172Y-13069009D01*
X10033172Y-13069009D02*
X10014124Y-13059486D01*
X10014124Y-13059486D02*
X10004600Y-13040438D01*
X10004600Y-13040438D02*
X10004600Y-13030914D01*
X10004600Y-13030914D02*
X10014124Y-13011867D01*
X10014124Y-13011867D02*
X10033172Y-13002343D01*
X10033172Y-13002343D02*
X10061743Y-13002343D01*
X10061743Y-13002343D02*
X10080791Y-13011867D01*
X10156981Y-13211867D02*
X10166505Y-13202343D01*
X10166505Y-13202343D02*
X10185553Y-13173771D01*
X10185553Y-13173771D02*
X10195076Y-13154724D01*
X10195076Y-13154724D02*
X10204600Y-13126152D01*
X10204600Y-13126152D02*
X10214124Y-13078533D01*
X10214124Y-13078533D02*
X10214124Y-13040438D01*
X10214124Y-13040438D02*
X10204600Y-12992819D01*
X10204600Y-12992819D02*
X10195076Y-12964248D01*
X10195076Y-12964248D02*
X10185553Y-12945200D01*
X10185553Y-12945200D02*
X10166505Y-12916628D01*
X10166505Y-12916628D02*
X10156981Y-12907105D01*
X10486505Y-13211867D02*
X10476981Y-13202343D01*
X10476981Y-13202343D02*
X10457934Y-13173771D01*
X10457934Y-13173771D02*
X10448410Y-13154724D01*
X10448410Y-13154724D02*
X10438886Y-13126152D01*
X10438886Y-13126152D02*
X10429362Y-13078533D01*
X10429362Y-13078533D02*
X10429362Y-13040438D01*
X10429362Y-13040438D02*
X10438886Y-12992819D01*
X10438886Y-12992819D02*
X10448410Y-12964248D01*
X10448410Y-12964248D02*
X10457934Y-12945200D01*
X10457934Y-12945200D02*
X10476981Y-12916628D01*
X10476981Y-12916628D02*
X10486505Y-12907105D01*
X10562695Y-13002343D02*
X10562695Y-13135676D01*
X10562695Y-13021390D02*
X10572219Y-13011867D01*
X10572219Y-13011867D02*
X10591267Y-13002343D01*
X10591267Y-13002343D02*
X10619838Y-13002343D01*
X10619838Y-13002343D02*
X10638886Y-13011867D01*
X10638886Y-13011867D02*
X10648410Y-13030914D01*
X10648410Y-13030914D02*
X10648410Y-13135676D01*
X10772219Y-13135676D02*
X10753172Y-13126152D01*
X10753172Y-13126152D02*
X10743648Y-13116628D01*
X10743648Y-13116628D02*
X10734124Y-13097581D01*
X10734124Y-13097581D02*
X10734124Y-13040438D01*
X10734124Y-13040438D02*
X10743648Y-13021390D01*
X10743648Y-13021390D02*
X10753172Y-13011867D01*
X10753172Y-13011867D02*
X10772219Y-13002343D01*
X10772219Y-13002343D02*
X10800791Y-13002343D01*
X10800791Y-13002343D02*
X10819838Y-13011867D01*
X10819838Y-13011867D02*
X10829362Y-13021390D01*
X10829362Y-13021390D02*
X10838886Y-13040438D01*
X10838886Y-13040438D02*
X10838886Y-13097581D01*
X10838886Y-13097581D02*
X10829362Y-13116628D01*
X10829362Y-13116628D02*
X10819838Y-13126152D01*
X10819838Y-13126152D02*
X10800791Y-13135676D01*
X10800791Y-13135676D02*
X10772219Y-13135676D01*
X10896029Y-13002343D02*
X10972219Y-13002343D01*
X10924600Y-12935676D02*
X10924600Y-13107105D01*
X10924600Y-13107105D02*
X10934124Y-13126152D01*
X10934124Y-13126152D02*
X10953172Y-13135676D01*
X10953172Y-13135676D02*
X10972219Y-13135676D01*
X11158886Y-13002343D02*
X11158886Y-13202343D01*
X11158886Y-13011867D02*
X11177934Y-13002343D01*
X11177934Y-13002343D02*
X11216029Y-13002343D01*
X11216029Y-13002343D02*
X11235076Y-13011867D01*
X11235076Y-13011867D02*
X11244600Y-13021390D01*
X11244600Y-13021390D02*
X11254124Y-13040438D01*
X11254124Y-13040438D02*
X11254124Y-13097581D01*
X11254124Y-13097581D02*
X11244600Y-13116628D01*
X11244600Y-13116628D02*
X11235076Y-13126152D01*
X11235076Y-13126152D02*
X11216029Y-13135676D01*
X11216029Y-13135676D02*
X11177934Y-13135676D01*
X11177934Y-13135676D02*
X11158886Y-13126152D01*
X11368410Y-13135676D02*
X11349362Y-13126152D01*
X11349362Y-13126152D02*
X11339838Y-13107105D01*
X11339838Y-13107105D02*
X11339838Y-12935676D01*
X11530314Y-13135676D02*
X11530314Y-13030914D01*
X11530314Y-13030914D02*
X11520791Y-13011867D01*
X11520791Y-13011867D02*
X11501743Y-13002343D01*
X11501743Y-13002343D02*
X11463648Y-13002343D01*
X11463648Y-13002343D02*
X11444600Y-13011867D01*
X11530314Y-13126152D02*
X11511267Y-13135676D01*
X11511267Y-13135676D02*
X11463648Y-13135676D01*
X11463648Y-13135676D02*
X11444600Y-13126152D01*
X11444600Y-13126152D02*
X11435076Y-13107105D01*
X11435076Y-13107105D02*
X11435076Y-13088057D01*
X11435076Y-13088057D02*
X11444600Y-13069009D01*
X11444600Y-13069009D02*
X11463648Y-13059486D01*
X11463648Y-13059486D02*
X11511267Y-13059486D01*
X11511267Y-13059486D02*
X11530314Y-13049962D01*
X11596981Y-13002343D02*
X11673172Y-13002343D01*
X11625553Y-12935676D02*
X11625553Y-13107105D01*
X11625553Y-13107105D02*
X11635076Y-13126152D01*
X11635076Y-13126152D02*
X11654124Y-13135676D01*
X11654124Y-13135676D02*
X11673172Y-13135676D01*
X11816029Y-13126152D02*
X11796981Y-13135676D01*
X11796981Y-13135676D02*
X11758886Y-13135676D01*
X11758886Y-13135676D02*
X11739838Y-13126152D01*
X11739838Y-13126152D02*
X11730314Y-13107105D01*
X11730314Y-13107105D02*
X11730314Y-13030914D01*
X11730314Y-13030914D02*
X11739838Y-13011867D01*
X11739838Y-13011867D02*
X11758886Y-13002343D01*
X11758886Y-13002343D02*
X11796981Y-13002343D01*
X11796981Y-13002343D02*
X11816029Y-13011867D01*
X11816029Y-13011867D02*
X11825553Y-13030914D01*
X11825553Y-13030914D02*
X11825553Y-13049962D01*
X11825553Y-13049962D02*
X11730314Y-13069009D01*
X11996981Y-13135676D02*
X11996981Y-12935676D01*
X11996981Y-13126152D02*
X11977934Y-13135676D01*
X11977934Y-13135676D02*
X11939838Y-13135676D01*
X11939838Y-13135676D02*
X11920791Y-13126152D01*
X11920791Y-13126152D02*
X11911267Y-13116628D01*
X11911267Y-13116628D02*
X11901743Y-13097581D01*
X11901743Y-13097581D02*
X11901743Y-13040438D01*
X11901743Y-13040438D02*
X11911267Y-13021390D01*
X11911267Y-13021390D02*
X11920791Y-13011867D01*
X11920791Y-13011867D02*
X11939838Y-13002343D01*
X11939838Y-13002343D02*
X11977934Y-13002343D01*
X11977934Y-13002343D02*
X11996981Y-13011867D01*
X12073172Y-13211867D02*
X12082695Y-13202343D01*
X12082695Y-13202343D02*
X12101743Y-13173771D01*
X12101743Y-13173771D02*
X12111267Y-13154724D01*
X12111267Y-13154724D02*
X12120791Y-13126152D01*
X12120791Y-13126152D02*
X12130314Y-13078533D01*
X12130314Y-13078533D02*
X12130314Y-13040438D01*
X12130314Y-13040438D02*
X12120791Y-12992819D01*
X12120791Y-12992819D02*
X12111267Y-12964248D01*
X12111267Y-12964248D02*
X12101743Y-12945200D01*
X12101743Y-12945200D02*
X12082695Y-12916628D01*
X12082695Y-12916628D02*
X12073172Y-12907105D01*
M02*
