%TF.GenerationSoftware,KiCad,Pcbnew,7.0.0-da2b9df05c~171~ubuntu20.04.1*%
%TF.CreationDate,2023-05-14T20:27:18+02:00*%
%TF.ProjectId,cpumeter,6370756d-6574-4657-922e-6b696361645f,v01*%
%TF.SameCoordinates,Original*%
%TF.FileFunction,Drillmap*%
%TF.FilePolarity,Positive*%
%FSLAX45Y45*%
G04 Gerber Fmt 4.5, Leading zero omitted, Abs format (unit mm)*
G04 Created by KiCad (PCBNEW 7.0.0-da2b9df05c~171~ubuntu20.04.1) date 2023-05-14 20:27:18*
%MOMM*%
%LPD*%
G01*
G04 APERTURE LIST*
%ADD10C,0.100000*%
%ADD11C,0.200000*%
%ADD12C,0.040000*%
%ADD13C,0.080000*%
%ADD14C,0.090000*%
%ADD15C,0.110000*%
%ADD16C,0.130000*%
G04 APERTURE END LIST*
D10*
X5529600Y-3417200D02*
X21529600Y-3417200D01*
X21529600Y-3417200D02*
X21529600Y-12417200D01*
X21529600Y-12417200D02*
X5529600Y-12417200D01*
X5529600Y-12417200D02*
X5529600Y-3417200D01*
D11*
D12*
X10875600Y-6278200D02*
X10915600Y-6318200D01*
X10915600Y-6278200D02*
X10875600Y-6318200D01*
X11918000Y-5897200D02*
X11958000Y-5937200D01*
X11958000Y-5897200D02*
X11918000Y-5937200D01*
X11918000Y-8183200D02*
X11958000Y-8223200D01*
X11958000Y-8183200D02*
X11918000Y-8223200D01*
X12172000Y-6278200D02*
X12212000Y-6318200D01*
X12212000Y-6278200D02*
X12172000Y-6318200D01*
X12172000Y-7929200D02*
X12212000Y-7969200D01*
X12212000Y-7929200D02*
X12172000Y-7969200D01*
X12807000Y-5643200D02*
X12847000Y-5683200D01*
X12847000Y-5643200D02*
X12807000Y-5683200D01*
X12807000Y-5897200D02*
X12847000Y-5937200D01*
X12847000Y-5897200D02*
X12807000Y-5937200D01*
X12807000Y-7929200D02*
X12847000Y-7969200D01*
X12847000Y-7929200D02*
X12807000Y-7969200D01*
X12807000Y-8183200D02*
X12847000Y-8223200D01*
X12847000Y-8183200D02*
X12807000Y-8223200D01*
D13*
X5855600Y-7949200D02*
G75*
G03*
X5855600Y-7949200I-40000J0D01*
G01*
X5855600Y-8203200D02*
G75*
G03*
X5855600Y-8203200I-40000J0D01*
G01*
X5855600Y-8457200D02*
G75*
G03*
X5855600Y-8457200I-40000J0D01*
G01*
X5855600Y-8711200D02*
G75*
G03*
X5855600Y-8711200I-40000J0D01*
G01*
X5855600Y-8965200D02*
G75*
G03*
X5855600Y-8965200I-40000J0D01*
G01*
X5855600Y-9219200D02*
G75*
G03*
X5855600Y-9219200I-40000J0D01*
G01*
X5855600Y-9473200D02*
G75*
G03*
X5855600Y-9473200I-40000J0D01*
G01*
X5855600Y-9727200D02*
G75*
G03*
X5855600Y-9727200I-40000J0D01*
G01*
X6494600Y-10235200D02*
G75*
G03*
X6494600Y-10235200I-40000J0D01*
G01*
X6617600Y-7127700D02*
G75*
G03*
X6617600Y-7127700I-40000J0D01*
G01*
X6617600Y-7627700D02*
G75*
G03*
X6617600Y-7627700I-40000J0D01*
G01*
X6617600Y-7949200D02*
G75*
G03*
X6617600Y-7949200I-40000J0D01*
G01*
X6617600Y-8203200D02*
G75*
G03*
X6617600Y-8203200I-40000J0D01*
G01*
X6617600Y-8457200D02*
G75*
G03*
X6617600Y-8457200I-40000J0D01*
G01*
X6617600Y-8711200D02*
G75*
G03*
X6617600Y-8711200I-40000J0D01*
G01*
X6617600Y-8965200D02*
G75*
G03*
X6617600Y-8965200I-40000J0D01*
G01*
X6617600Y-9219200D02*
G75*
G03*
X6617600Y-9219200I-40000J0D01*
G01*
X6617600Y-9473200D02*
G75*
G03*
X6617600Y-9473200I-40000J0D01*
G01*
X6617600Y-9727200D02*
G75*
G03*
X6617600Y-9727200I-40000J0D01*
G01*
X6744600Y-10235200D02*
G75*
G03*
X6744600Y-10235200I-40000J0D01*
G01*
X6998600Y-7822200D02*
G75*
G03*
X6998600Y-7822200I-40000J0D01*
G01*
X6998600Y-8203200D02*
G75*
G03*
X6998600Y-8203200I-40000J0D01*
G01*
X6998600Y-8711200D02*
G75*
G03*
X6998600Y-8711200I-40000J0D01*
G01*
X7760600Y-8203200D02*
G75*
G03*
X7760600Y-8203200I-40000J0D01*
G01*
X8014600Y-7822200D02*
G75*
G03*
X8014600Y-7822200I-40000J0D01*
G01*
X8014600Y-8711200D02*
G75*
G03*
X8014600Y-8711200I-40000J0D01*
G01*
X8395600Y-8203200D02*
G75*
G03*
X8395600Y-8203200I-40000J0D01*
G01*
X8395600Y-8453200D02*
G75*
G03*
X8395600Y-8453200I-40000J0D01*
G01*
X8993500Y-8266700D02*
G75*
G03*
X8993500Y-8266700I-40000J0D01*
G01*
X8993500Y-9282700D02*
G75*
G03*
X8993500Y-9282700I-40000J0D01*
G01*
X9030600Y-10679700D02*
G75*
G03*
X9030600Y-10679700I-40000J0D01*
G01*
X9284600Y-10425700D02*
G75*
G03*
X9284600Y-10425700I-40000J0D01*
G01*
X9284600Y-10933700D02*
G75*
G03*
X9284600Y-10933700I-40000J0D01*
G01*
X10136500Y-11049000D02*
G75*
G03*
X10136500Y-11049000I-40000J0D01*
G01*
X10136500Y-12065000D02*
G75*
G03*
X10136500Y-12065000I-40000J0D01*
G01*
X10898500Y-11049000D02*
G75*
G03*
X10898500Y-11049000I-40000J0D01*
G01*
X10898500Y-12065000D02*
G75*
G03*
X10898500Y-12065000I-40000J0D01*
G01*
X13052600Y-4219400D02*
G75*
G03*
X13052600Y-4219400I-40000J0D01*
G01*
X13052600Y-4719400D02*
G75*
G03*
X13052600Y-4719400I-40000J0D01*
G01*
X13121000Y-6556200D02*
G75*
G03*
X13121000Y-6556200I-40000J0D01*
G01*
X13121000Y-7056200D02*
G75*
G03*
X13121000Y-7056200I-40000J0D01*
G01*
X13121000Y-8842200D02*
G75*
G03*
X13121000Y-8842200I-40000J0D01*
G01*
X13121000Y-9342200D02*
G75*
G03*
X13121000Y-9342200I-40000J0D01*
G01*
X13122000Y-5156200D02*
G75*
G03*
X13122000Y-5156200I-40000J0D01*
G01*
X13122000Y-5410200D02*
G75*
G03*
X13122000Y-5410200I-40000J0D01*
G01*
X13122000Y-5664200D02*
G75*
G03*
X13122000Y-5664200I-40000J0D01*
G01*
X13122000Y-5918200D02*
G75*
G03*
X13122000Y-5918200I-40000J0D01*
G01*
X13122000Y-7442200D02*
G75*
G03*
X13122000Y-7442200I-40000J0D01*
G01*
X13122000Y-7696200D02*
G75*
G03*
X13122000Y-7696200I-40000J0D01*
G01*
X13122000Y-7950200D02*
G75*
G03*
X13122000Y-7950200I-40000J0D01*
G01*
X13122000Y-8204200D02*
G75*
G03*
X13122000Y-8204200I-40000J0D01*
G01*
X13122000Y-9727200D02*
G75*
G03*
X13122000Y-9727200I-40000J0D01*
G01*
X13122000Y-9981200D02*
G75*
G03*
X13122000Y-9981200I-40000J0D01*
G01*
X13122000Y-10235200D02*
G75*
G03*
X13122000Y-10235200I-40000J0D01*
G01*
X13122000Y-10489200D02*
G75*
G03*
X13122000Y-10489200I-40000J0D01*
G01*
X13756000Y-4524200D02*
G75*
G03*
X13756000Y-4524200I-40000J0D01*
G01*
X13756000Y-4774200D02*
G75*
G03*
X13756000Y-4774200I-40000J0D01*
G01*
X13756000Y-6806200D02*
G75*
G03*
X13756000Y-6806200I-40000J0D01*
G01*
X13756000Y-7056200D02*
G75*
G03*
X13756000Y-7056200I-40000J0D01*
G01*
X13884000Y-5156200D02*
G75*
G03*
X13884000Y-5156200I-40000J0D01*
G01*
X13884000Y-5410200D02*
G75*
G03*
X13884000Y-5410200I-40000J0D01*
G01*
X13884000Y-5664200D02*
G75*
G03*
X13884000Y-5664200I-40000J0D01*
G01*
X13884000Y-5918200D02*
G75*
G03*
X13884000Y-5918200I-40000J0D01*
G01*
X13884000Y-7442200D02*
G75*
G03*
X13884000Y-7442200I-40000J0D01*
G01*
X13884000Y-7696200D02*
G75*
G03*
X13884000Y-7696200I-40000J0D01*
G01*
X13884000Y-7950200D02*
G75*
G03*
X13884000Y-7950200I-40000J0D01*
G01*
X13884000Y-8204200D02*
G75*
G03*
X13884000Y-8204200I-40000J0D01*
G01*
X13884000Y-9727200D02*
G75*
G03*
X13884000Y-9727200I-40000J0D01*
G01*
X13884000Y-9981200D02*
G75*
G03*
X13884000Y-9981200I-40000J0D01*
G01*
X13884000Y-10235200D02*
G75*
G03*
X13884000Y-10235200I-40000J0D01*
G01*
X13884000Y-10489200D02*
G75*
G03*
X13884000Y-10489200I-40000J0D01*
G01*
X13890800Y-9064311D02*
G75*
G03*
X13890800Y-9064311I-40000J0D01*
G01*
X13890800Y-9314311D02*
G75*
G03*
X13890800Y-9314311I-40000J0D01*
G01*
X14492600Y-10477500D02*
G75*
G03*
X14492600Y-10477500I-40000J0D01*
G01*
X14492600Y-11493500D02*
G75*
G03*
X14492600Y-11493500I-40000J0D01*
G01*
X14505300Y-8483600D02*
G75*
G03*
X14505300Y-8483600I-40000J0D01*
G01*
X14505300Y-9499600D02*
G75*
G03*
X14505300Y-9499600I-40000J0D01*
G01*
X14518000Y-3873500D02*
G75*
G03*
X14518000Y-3873500I-40000J0D01*
G01*
X14518000Y-4889500D02*
G75*
G03*
X14518000Y-4889500I-40000J0D01*
G01*
X14518000Y-5905500D02*
G75*
G03*
X14518000Y-5905500I-40000J0D01*
G01*
X14518000Y-6921500D02*
G75*
G03*
X14518000Y-6921500I-40000J0D01*
G01*
X14872600Y-4270200D02*
G75*
G03*
X14872600Y-4270200I-40000J0D01*
G01*
X14872600Y-4770200D02*
G75*
G03*
X14872600Y-4770200I-40000J0D01*
G01*
X14872600Y-6048200D02*
G75*
G03*
X14872600Y-6048200I-40000J0D01*
G01*
X14872600Y-6548200D02*
G75*
G03*
X14872600Y-6548200I-40000J0D01*
G01*
X14872600Y-8842200D02*
G75*
G03*
X14872600Y-8842200I-40000J0D01*
G01*
X14872600Y-9342200D02*
G75*
G03*
X14872600Y-9342200I-40000J0D01*
G01*
X14872600Y-9981200D02*
G75*
G03*
X14872600Y-9981200I-40000J0D01*
G01*
X14872600Y-10620200D02*
G75*
G03*
X14872600Y-10620200I-40000J0D01*
G01*
X14872600Y-11120200D02*
G75*
G03*
X14872600Y-11120200I-40000J0D01*
G01*
X14876600Y-5409200D02*
G75*
G03*
X14876600Y-5409200I-40000J0D01*
G01*
X15253600Y-3885200D02*
G75*
G03*
X15253600Y-3885200I-40000J0D01*
G01*
X15253600Y-4901200D02*
G75*
G03*
X15253600Y-4901200I-40000J0D01*
G01*
X15253600Y-5917200D02*
G75*
G03*
X15253600Y-5917200I-40000J0D01*
G01*
X15253600Y-6933200D02*
G75*
G03*
X15253600Y-6933200I-40000J0D01*
G01*
X15253600Y-8457200D02*
G75*
G03*
X15253600Y-8457200I-40000J0D01*
G01*
X15253600Y-9473200D02*
G75*
G03*
X15253600Y-9473200I-40000J0D01*
G01*
X15253600Y-10489200D02*
G75*
G03*
X15253600Y-10489200I-40000J0D01*
G01*
X15253600Y-11505200D02*
G75*
G03*
X15253600Y-11505200I-40000J0D01*
G01*
X15372600Y-9981200D02*
G75*
G03*
X15372600Y-9981200I-40000J0D01*
G01*
X15376600Y-5409200D02*
G75*
G03*
X15376600Y-5409200I-40000J0D01*
G01*
X15761600Y-4016200D02*
G75*
G03*
X15761600Y-4016200I-40000J0D01*
G01*
X15761600Y-4266200D02*
G75*
G03*
X15761600Y-4266200I-40000J0D01*
G01*
X15761600Y-4647200D02*
G75*
G03*
X15761600Y-4647200I-40000J0D01*
G01*
X15761600Y-4901200D02*
G75*
G03*
X15761600Y-4901200I-40000J0D01*
G01*
X15761600Y-5155200D02*
G75*
G03*
X15761600Y-5155200I-40000J0D01*
G01*
X15761600Y-5409200D02*
G75*
G03*
X15761600Y-5409200I-40000J0D01*
G01*
X15761600Y-5663200D02*
G75*
G03*
X15761600Y-5663200I-40000J0D01*
G01*
X15761600Y-5917200D02*
G75*
G03*
X15761600Y-5917200I-40000J0D01*
G01*
X15761600Y-6171200D02*
G75*
G03*
X15761600Y-6171200I-40000J0D01*
G01*
X15761600Y-9219200D02*
G75*
G03*
X15761600Y-9219200I-40000J0D01*
G01*
X15761600Y-9473200D02*
G75*
G03*
X15761600Y-9473200I-40000J0D01*
G01*
X15761600Y-9727200D02*
G75*
G03*
X15761600Y-9727200I-40000J0D01*
G01*
X15761600Y-9981200D02*
G75*
G03*
X15761600Y-9981200I-40000J0D01*
G01*
X15761600Y-10235200D02*
G75*
G03*
X15761600Y-10235200I-40000J0D01*
G01*
X15761600Y-10489200D02*
G75*
G03*
X15761600Y-10489200I-40000J0D01*
G01*
X15761600Y-10743200D02*
G75*
G03*
X15761600Y-10743200I-40000J0D01*
G01*
X16523600Y-4647200D02*
G75*
G03*
X16523600Y-4647200I-40000J0D01*
G01*
X16523600Y-4901200D02*
G75*
G03*
X16523600Y-4901200I-40000J0D01*
G01*
X16523600Y-5155200D02*
G75*
G03*
X16523600Y-5155200I-40000J0D01*
G01*
X16523600Y-5409200D02*
G75*
G03*
X16523600Y-5409200I-40000J0D01*
G01*
X16523600Y-5663200D02*
G75*
G03*
X16523600Y-5663200I-40000J0D01*
G01*
X16523600Y-5917200D02*
G75*
G03*
X16523600Y-5917200I-40000J0D01*
G01*
X16523600Y-6171200D02*
G75*
G03*
X16523600Y-6171200I-40000J0D01*
G01*
X16523600Y-9219200D02*
G75*
G03*
X16523600Y-9219200I-40000J0D01*
G01*
X16523600Y-9473200D02*
G75*
G03*
X16523600Y-9473200I-40000J0D01*
G01*
X16523600Y-9727200D02*
G75*
G03*
X16523600Y-9727200I-40000J0D01*
G01*
X16523600Y-9981200D02*
G75*
G03*
X16523600Y-9981200I-40000J0D01*
G01*
X16523600Y-10235200D02*
G75*
G03*
X16523600Y-10235200I-40000J0D01*
G01*
X16523600Y-10489200D02*
G75*
G03*
X16523600Y-10489200I-40000J0D01*
G01*
X16523600Y-10743200D02*
G75*
G03*
X16523600Y-10743200I-40000J0D01*
G01*
X16904600Y-5726700D02*
G75*
G03*
X16904600Y-5726700I-40000J0D01*
G01*
X16904600Y-6742700D02*
G75*
G03*
X16904600Y-6742700I-40000J0D01*
G01*
X16904600Y-8584200D02*
G75*
G03*
X16904600Y-8584200I-40000J0D01*
G01*
X16904600Y-9600200D02*
G75*
G03*
X16904600Y-9600200I-40000J0D01*
G01*
X17031600Y-10489200D02*
G75*
G03*
X17031600Y-10489200I-40000J0D01*
G01*
X17031600Y-10739200D02*
G75*
G03*
X17031600Y-10739200I-40000J0D01*
G01*
X17285600Y-5917200D02*
G75*
G03*
X17285600Y-5917200I-40000J0D01*
G01*
X17285600Y-6933200D02*
G75*
G03*
X17285600Y-6933200I-40000J0D01*
G01*
X17285600Y-8457200D02*
G75*
G03*
X17285600Y-8457200I-40000J0D01*
G01*
X17285600Y-9473200D02*
G75*
G03*
X17285600Y-9473200I-40000J0D01*
G01*
X17285600Y-9735200D02*
G75*
G03*
X17285600Y-9735200I-40000J0D01*
G01*
X17285600Y-10235200D02*
G75*
G03*
X17285600Y-10235200I-40000J0D01*
G01*
X17539600Y-5159200D02*
G75*
G03*
X17539600Y-5159200I-40000J0D01*
G01*
X17539600Y-5659200D02*
G75*
G03*
X17539600Y-5659200I-40000J0D01*
G01*
X17793600Y-4901200D02*
G75*
G03*
X17793600Y-4901200I-40000J0D01*
G01*
X17793600Y-6171200D02*
G75*
G03*
X17793600Y-6171200I-40000J0D01*
G01*
X17793600Y-7441200D02*
G75*
G03*
X17793600Y-7441200I-40000J0D01*
G01*
X17793600Y-8711200D02*
G75*
G03*
X17793600Y-8711200I-40000J0D01*
G01*
X17793600Y-9981200D02*
G75*
G03*
X17793600Y-9981200I-40000J0D01*
G01*
X17793600Y-11251200D02*
G75*
G03*
X17793600Y-11251200I-40000J0D01*
G01*
X18428600Y-4520200D02*
G75*
G03*
X18428600Y-4520200I-40000J0D01*
G01*
X18428600Y-5790200D02*
G75*
G03*
X18428600Y-5790200I-40000J0D01*
G01*
X18428600Y-7060200D02*
G75*
G03*
X18428600Y-7060200I-40000J0D01*
G01*
X18428600Y-8330200D02*
G75*
G03*
X18428600Y-8330200I-40000J0D01*
G01*
X18428600Y-9600200D02*
G75*
G03*
X18428600Y-9600200I-40000J0D01*
G01*
X18428600Y-10870200D02*
G75*
G03*
X18428600Y-10870200I-40000J0D01*
G01*
X18682600Y-4520200D02*
G75*
G03*
X18682600Y-4520200I-40000J0D01*
G01*
X18682600Y-5790200D02*
G75*
G03*
X18682600Y-5790200I-40000J0D01*
G01*
X18682600Y-7060200D02*
G75*
G03*
X18682600Y-7060200I-40000J0D01*
G01*
X18682600Y-8330200D02*
G75*
G03*
X18682600Y-8330200I-40000J0D01*
G01*
X18682600Y-9600200D02*
G75*
G03*
X18682600Y-9600200I-40000J0D01*
G01*
X18682600Y-10870200D02*
G75*
G03*
X18682600Y-10870200I-40000J0D01*
G01*
X18809600Y-4901200D02*
G75*
G03*
X18809600Y-4901200I-40000J0D01*
G01*
X18809600Y-6171200D02*
G75*
G03*
X18809600Y-6171200I-40000J0D01*
G01*
X18809600Y-7441200D02*
G75*
G03*
X18809600Y-7441200I-40000J0D01*
G01*
X18809600Y-8711200D02*
G75*
G03*
X18809600Y-8711200I-40000J0D01*
G01*
X18809600Y-9981200D02*
G75*
G03*
X18809600Y-9981200I-40000J0D01*
G01*
X18809600Y-11251200D02*
G75*
G03*
X18809600Y-11251200I-40000J0D01*
G01*
X19062600Y-4224200D02*
G75*
G03*
X19062600Y-4224200I-40000J0D01*
G01*
X19062600Y-4859200D02*
G75*
G03*
X19062600Y-4859200I-40000J0D01*
G01*
X19062600Y-5494200D02*
G75*
G03*
X19062600Y-5494200I-40000J0D01*
G01*
X19062600Y-6129200D02*
G75*
G03*
X19062600Y-6129200I-40000J0D01*
G01*
X19062600Y-6764200D02*
G75*
G03*
X19062600Y-6764200I-40000J0D01*
G01*
X19062600Y-7399200D02*
G75*
G03*
X19062600Y-7399200I-40000J0D01*
G01*
X19062600Y-8034200D02*
G75*
G03*
X19062600Y-8034200I-40000J0D01*
G01*
X19062600Y-8669200D02*
G75*
G03*
X19062600Y-8669200I-40000J0D01*
G01*
X19062600Y-9304200D02*
G75*
G03*
X19062600Y-9304200I-40000J0D01*
G01*
X19062600Y-9939200D02*
G75*
G03*
X19062600Y-9939200I-40000J0D01*
G01*
X19062600Y-10574200D02*
G75*
G03*
X19062600Y-10574200I-40000J0D01*
G01*
X19062600Y-11209200D02*
G75*
G03*
X19062600Y-11209200I-40000J0D01*
G01*
X19316600Y-3970200D02*
G75*
G03*
X19316600Y-3970200I-40000J0D01*
G01*
X19316600Y-4605200D02*
G75*
G03*
X19316600Y-4605200I-40000J0D01*
G01*
X19316600Y-5240200D02*
G75*
G03*
X19316600Y-5240200I-40000J0D01*
G01*
X19316600Y-5875200D02*
G75*
G03*
X19316600Y-5875200I-40000J0D01*
G01*
X19316600Y-6510200D02*
G75*
G03*
X19316600Y-6510200I-40000J0D01*
G01*
X19316600Y-7145200D02*
G75*
G03*
X19316600Y-7145200I-40000J0D01*
G01*
X19316600Y-7780200D02*
G75*
G03*
X19316600Y-7780200I-40000J0D01*
G01*
X19316600Y-8415200D02*
G75*
G03*
X19316600Y-8415200I-40000J0D01*
G01*
X19316600Y-9050200D02*
G75*
G03*
X19316600Y-9050200I-40000J0D01*
G01*
X19316600Y-9685200D02*
G75*
G03*
X19316600Y-9685200I-40000J0D01*
G01*
X19316600Y-10320200D02*
G75*
G03*
X19316600Y-10320200I-40000J0D01*
G01*
X19316600Y-10955200D02*
G75*
G03*
X19316600Y-10955200I-40000J0D01*
G01*
X19570600Y-4224200D02*
G75*
G03*
X19570600Y-4224200I-40000J0D01*
G01*
X19570600Y-4859200D02*
G75*
G03*
X19570600Y-4859200I-40000J0D01*
G01*
X19570600Y-5494200D02*
G75*
G03*
X19570600Y-5494200I-40000J0D01*
G01*
X19570600Y-6129200D02*
G75*
G03*
X19570600Y-6129200I-40000J0D01*
G01*
X19570600Y-6764200D02*
G75*
G03*
X19570600Y-6764200I-40000J0D01*
G01*
X19570600Y-7399200D02*
G75*
G03*
X19570600Y-7399200I-40000J0D01*
G01*
X19570600Y-8034200D02*
G75*
G03*
X19570600Y-8034200I-40000J0D01*
G01*
X19570600Y-8669200D02*
G75*
G03*
X19570600Y-8669200I-40000J0D01*
G01*
X19570600Y-9304200D02*
G75*
G03*
X19570600Y-9304200I-40000J0D01*
G01*
X19570600Y-9939200D02*
G75*
G03*
X19570600Y-9939200I-40000J0D01*
G01*
X19570600Y-10574200D02*
G75*
G03*
X19570600Y-10574200I-40000J0D01*
G01*
X19570600Y-11209200D02*
G75*
G03*
X19570600Y-11209200I-40000J0D01*
G01*
D14*
X9244600Y-9872700D02*
X9244600Y-9962700D01*
X9199600Y-9917700D02*
X9289600Y-9917700D01*
X9244600Y-10126700D02*
X9244600Y-10216700D01*
X9199600Y-10171700D02*
X9289600Y-10171700D01*
X10096500Y-10496000D02*
X10096500Y-10586000D01*
X10051500Y-10541000D02*
X10141500Y-10541000D01*
X10096500Y-10750000D02*
X10096500Y-10840000D01*
X10051500Y-10795000D02*
X10141500Y-10795000D01*
X10858500Y-10496000D02*
X10858500Y-10586000D01*
X10813500Y-10541000D02*
X10903500Y-10541000D01*
X10858500Y-10750000D02*
X10858500Y-10840000D01*
X10813500Y-10795000D02*
X10903500Y-10795000D01*
D10*
X8517956Y-4555556D02*
X8517956Y-4484844D01*
X8447244Y-4484844D01*
X8447244Y-4555556D01*
X8517956Y-4555556D01*
X8517956Y-4809556D02*
X8517956Y-4738844D01*
X8447244Y-4738844D01*
X8447244Y-4809556D01*
X8517956Y-4809556D01*
X8517956Y-5063556D02*
X8517956Y-4992844D01*
X8447244Y-4992844D01*
X8447244Y-5063556D01*
X8517956Y-5063556D01*
X8517956Y-5317556D02*
X8517956Y-5246844D01*
X8447244Y-5246844D01*
X8447244Y-5317556D01*
X8517956Y-5317556D01*
X8517956Y-5571556D02*
X8517956Y-5500844D01*
X8447244Y-5500844D01*
X8447244Y-5571556D01*
X8517956Y-5571556D01*
X8517956Y-5825556D02*
X8517956Y-5754844D01*
X8447244Y-5754844D01*
X8447244Y-5825556D01*
X8517956Y-5825556D01*
X8517956Y-6079556D02*
X8517956Y-6008844D01*
X8447244Y-6008844D01*
X8447244Y-6079556D01*
X8517956Y-6079556D01*
X8517956Y-6333556D02*
X8517956Y-6262844D01*
X8447244Y-6262844D01*
X8447244Y-6333556D01*
X8517956Y-6333556D01*
X8517956Y-6587556D02*
X8517956Y-6516844D01*
X8447244Y-6516844D01*
X8447244Y-6587556D01*
X8517956Y-6587556D01*
X8517956Y-6841556D02*
X8517956Y-6770844D01*
X8447244Y-6770844D01*
X8447244Y-6841556D01*
X8517956Y-6841556D01*
X8517956Y-7095556D02*
X8517956Y-7024844D01*
X8447244Y-7024844D01*
X8447244Y-7095556D01*
X8517956Y-7095556D01*
X10549956Y-4555556D02*
X10549956Y-4484844D01*
X10479244Y-4484844D01*
X10479244Y-4555556D01*
X10549956Y-4555556D01*
X10549956Y-4809556D02*
X10549956Y-4738844D01*
X10479244Y-4738844D01*
X10479244Y-4809556D01*
X10549956Y-4809556D01*
X10549956Y-5063556D02*
X10549956Y-4992844D01*
X10479244Y-4992844D01*
X10479244Y-5063556D01*
X10549956Y-5063556D01*
X10549956Y-5317556D02*
X10549956Y-5246844D01*
X10479244Y-5246844D01*
X10479244Y-5317556D01*
X10549956Y-5317556D01*
X10549956Y-5571556D02*
X10549956Y-5500844D01*
X10479244Y-5500844D01*
X10479244Y-5571556D01*
X10549956Y-5571556D01*
X10549956Y-5825556D02*
X10549956Y-5754844D01*
X10479244Y-5754844D01*
X10479244Y-5825556D01*
X10549956Y-5825556D01*
X10549956Y-6079556D02*
X10549956Y-6008844D01*
X10479244Y-6008844D01*
X10479244Y-6079556D01*
X10549956Y-6079556D01*
X10549956Y-6333556D02*
X10549956Y-6262844D01*
X10479244Y-6262844D01*
X10479244Y-6333556D01*
X10549956Y-6333556D01*
X10549956Y-6587556D02*
X10549956Y-6516844D01*
X10479244Y-6516844D01*
X10479244Y-6587556D01*
X10549956Y-6587556D01*
X10549956Y-6841556D02*
X10549956Y-6770844D01*
X10479244Y-6770844D01*
X10479244Y-6841556D01*
X10549956Y-6841556D01*
X10549956Y-7095556D02*
X10549956Y-7024844D01*
X10479244Y-7024844D01*
X10479244Y-7095556D01*
X10549956Y-7095556D01*
D15*
X8509000Y-11612000D02*
X8564000Y-11557000D01*
X8509000Y-11502000D01*
X8454000Y-11557000D01*
X8509000Y-11612000D01*
X9398000Y-8321700D02*
X9453000Y-8266700D01*
X9398000Y-8211700D01*
X9343000Y-8266700D01*
X9398000Y-8321700D01*
X9398000Y-9337700D02*
X9453000Y-9282700D01*
X9398000Y-9227700D01*
X9343000Y-9282700D01*
X9398000Y-9337700D01*
X9525000Y-11612000D02*
X9580000Y-11557000D01*
X9525000Y-11502000D01*
X9470000Y-11557000D01*
X9525000Y-11612000D01*
X11493500Y-11104000D02*
X11548500Y-11049000D01*
X11493500Y-10994000D01*
X11438500Y-11049000D01*
X11493500Y-11104000D01*
X11493500Y-12120000D02*
X11548500Y-12065000D01*
X11493500Y-12010000D01*
X11438500Y-12065000D01*
X11493500Y-12120000D01*
D16*
X7405600Y-9692700D02*
X7535600Y-9822700D01*
X7535600Y-9692700D02*
X7405600Y-9822700D01*
X7535600Y-9757700D02*
G75*
G03*
X7535600Y-9757700I-65000J0D01*
G01*
X7905600Y-9692700D02*
X8035600Y-9822700D01*
X8035600Y-9692700D02*
X7905600Y-9822700D01*
X8035600Y-9757700D02*
G75*
G03*
X8035600Y-9757700I-65000J0D01*
G01*
X10604000Y-8128000D02*
X10734000Y-8258000D01*
X10734000Y-8128000D02*
X10604000Y-8258000D01*
X10734000Y-8193000D02*
G75*
G03*
X10734000Y-8193000I-65000J0D01*
G01*
X10604000Y-9144000D02*
X10734000Y-9274000D01*
X10734000Y-9144000D02*
X10604000Y-9274000D01*
X10734000Y-9209000D02*
G75*
G03*
X10734000Y-9209000I-65000J0D01*
G01*
X10604000Y-9906000D02*
X10734000Y-10036000D01*
X10734000Y-9906000D02*
X10604000Y-10036000D01*
X10734000Y-9971000D02*
G75*
G03*
X10734000Y-9971000I-65000J0D01*
G01*
X11366000Y-8128000D02*
X11496000Y-8258000D01*
X11496000Y-8128000D02*
X11366000Y-8258000D01*
X11496000Y-8193000D02*
G75*
G03*
X11496000Y-8193000I-65000J0D01*
G01*
X11366000Y-9652000D02*
X11496000Y-9782000D01*
X11496000Y-9652000D02*
X11366000Y-9782000D01*
X11496000Y-9717000D02*
G75*
G03*
X11496000Y-9717000I-65000J0D01*
G01*
X20356600Y-6504200D02*
X20486600Y-6634200D01*
X20486600Y-6504200D02*
X20356600Y-6634200D01*
X20486600Y-6569200D02*
G75*
G03*
X20486600Y-6569200I-65000J0D01*
G01*
X20356600Y-7004200D02*
X20486600Y-7134200D01*
X20486600Y-7004200D02*
X20356600Y-7134200D01*
X20486600Y-7069200D02*
G75*
G03*
X20486600Y-7069200I-65000J0D01*
G01*
X20356600Y-7504200D02*
X20486600Y-7634200D01*
X20486600Y-7504200D02*
X20356600Y-7634200D01*
X20486600Y-7569200D02*
G75*
G03*
X20486600Y-7569200I-65000J0D01*
G01*
X20356600Y-8004200D02*
X20486600Y-8134200D01*
X20486600Y-8004200D02*
X20356600Y-8134200D01*
X20486600Y-8069200D02*
G75*
G03*
X20486600Y-8069200I-65000J0D01*
G01*
X20356600Y-8504200D02*
X20486600Y-8634200D01*
X20486600Y-8504200D02*
X20356600Y-8634200D01*
X20486600Y-8569200D02*
G75*
G03*
X20486600Y-8569200I-65000J0D01*
G01*
X20356600Y-9004200D02*
X20486600Y-9134200D01*
X20486600Y-9004200D02*
X20356600Y-9134200D01*
X20486600Y-9069200D02*
G75*
G03*
X20486600Y-9069200I-65000J0D01*
G01*
D11*
X5772219Y-12715676D02*
X5772219Y-12515676D01*
X5772219Y-12515676D02*
X5819838Y-12515676D01*
X5819838Y-12515676D02*
X5848409Y-12525200D01*
X5848409Y-12525200D02*
X5867457Y-12544248D01*
X5867457Y-12544248D02*
X5876981Y-12563295D01*
X5876981Y-12563295D02*
X5886505Y-12601390D01*
X5886505Y-12601390D02*
X5886505Y-12629962D01*
X5886505Y-12629962D02*
X5876981Y-12668057D01*
X5876981Y-12668057D02*
X5867457Y-12687105D01*
X5867457Y-12687105D02*
X5848409Y-12706152D01*
X5848409Y-12706152D02*
X5819838Y-12715676D01*
X5819838Y-12715676D02*
X5772219Y-12715676D01*
X5972219Y-12715676D02*
X5972219Y-12582343D01*
X5972219Y-12620438D02*
X5981743Y-12601390D01*
X5981743Y-12601390D02*
X5991267Y-12591867D01*
X5991267Y-12591867D02*
X6010314Y-12582343D01*
X6010314Y-12582343D02*
X6029362Y-12582343D01*
X6096028Y-12715676D02*
X6096028Y-12582343D01*
X6096028Y-12515676D02*
X6086505Y-12525200D01*
X6086505Y-12525200D02*
X6096028Y-12534724D01*
X6096028Y-12534724D02*
X6105552Y-12525200D01*
X6105552Y-12525200D02*
X6096028Y-12515676D01*
X6096028Y-12515676D02*
X6096028Y-12534724D01*
X6219838Y-12715676D02*
X6200790Y-12706152D01*
X6200790Y-12706152D02*
X6191267Y-12687105D01*
X6191267Y-12687105D02*
X6191267Y-12515676D01*
X6324600Y-12715676D02*
X6305552Y-12706152D01*
X6305552Y-12706152D02*
X6296028Y-12687105D01*
X6296028Y-12687105D02*
X6296028Y-12515676D01*
X6520790Y-12715676D02*
X6520790Y-12515676D01*
X6520790Y-12515676D02*
X6587457Y-12658533D01*
X6587457Y-12658533D02*
X6654124Y-12515676D01*
X6654124Y-12515676D02*
X6654124Y-12715676D01*
X6835076Y-12715676D02*
X6835076Y-12610914D01*
X6835076Y-12610914D02*
X6825552Y-12591867D01*
X6825552Y-12591867D02*
X6806505Y-12582343D01*
X6806505Y-12582343D02*
X6768409Y-12582343D01*
X6768409Y-12582343D02*
X6749362Y-12591867D01*
X6835076Y-12706152D02*
X6816028Y-12715676D01*
X6816028Y-12715676D02*
X6768409Y-12715676D01*
X6768409Y-12715676D02*
X6749362Y-12706152D01*
X6749362Y-12706152D02*
X6739838Y-12687105D01*
X6739838Y-12687105D02*
X6739838Y-12668057D01*
X6739838Y-12668057D02*
X6749362Y-12649009D01*
X6749362Y-12649009D02*
X6768409Y-12639486D01*
X6768409Y-12639486D02*
X6816028Y-12639486D01*
X6816028Y-12639486D02*
X6835076Y-12629962D01*
X6930314Y-12582343D02*
X6930314Y-12782343D01*
X6930314Y-12591867D02*
X6949362Y-12582343D01*
X6949362Y-12582343D02*
X6987457Y-12582343D01*
X6987457Y-12582343D02*
X7006505Y-12591867D01*
X7006505Y-12591867D02*
X7016028Y-12601390D01*
X7016028Y-12601390D02*
X7025552Y-12620438D01*
X7025552Y-12620438D02*
X7025552Y-12677581D01*
X7025552Y-12677581D02*
X7016028Y-12696628D01*
X7016028Y-12696628D02*
X7006505Y-12706152D01*
X7006505Y-12706152D02*
X6987457Y-12715676D01*
X6987457Y-12715676D02*
X6949362Y-12715676D01*
X6949362Y-12715676D02*
X6930314Y-12706152D01*
X7111267Y-12696628D02*
X7120790Y-12706152D01*
X7120790Y-12706152D02*
X7111267Y-12715676D01*
X7111267Y-12715676D02*
X7101743Y-12706152D01*
X7101743Y-12706152D02*
X7111267Y-12696628D01*
X7111267Y-12696628D02*
X7111267Y-12715676D01*
X7111267Y-12591867D02*
X7120790Y-12601390D01*
X7120790Y-12601390D02*
X7111267Y-12610914D01*
X7111267Y-12610914D02*
X7101743Y-12601390D01*
X7101743Y-12601390D02*
X7111267Y-12591867D01*
X7111267Y-12591867D02*
X7111267Y-12610914D01*
D12*
X5484600Y-13042200D02*
X5524600Y-13082200D01*
X5524600Y-13042200D02*
X5484600Y-13082200D01*
D11*
X5810314Y-12935676D02*
X5829362Y-12935676D01*
X5829362Y-12935676D02*
X5848409Y-12945200D01*
X5848409Y-12945200D02*
X5857933Y-12954724D01*
X5857933Y-12954724D02*
X5867457Y-12973771D01*
X5867457Y-12973771D02*
X5876981Y-13011867D01*
X5876981Y-13011867D02*
X5876981Y-13059486D01*
X5876981Y-13059486D02*
X5867457Y-13097581D01*
X5867457Y-13097581D02*
X5857933Y-13116628D01*
X5857933Y-13116628D02*
X5848409Y-13126152D01*
X5848409Y-13126152D02*
X5829362Y-13135676D01*
X5829362Y-13135676D02*
X5810314Y-13135676D01*
X5810314Y-13135676D02*
X5791267Y-13126152D01*
X5791267Y-13126152D02*
X5781743Y-13116628D01*
X5781743Y-13116628D02*
X5772219Y-13097581D01*
X5772219Y-13097581D02*
X5762695Y-13059486D01*
X5762695Y-13059486D02*
X5762695Y-13011867D01*
X5762695Y-13011867D02*
X5772219Y-12973771D01*
X5772219Y-12973771D02*
X5781743Y-12954724D01*
X5781743Y-12954724D02*
X5791267Y-12945200D01*
X5791267Y-12945200D02*
X5810314Y-12935676D01*
X5962695Y-13116628D02*
X5972219Y-13126152D01*
X5972219Y-13126152D02*
X5962695Y-13135676D01*
X5962695Y-13135676D02*
X5953171Y-13126152D01*
X5953171Y-13126152D02*
X5962695Y-13116628D01*
X5962695Y-13116628D02*
X5962695Y-13135676D01*
X6143648Y-13002343D02*
X6143648Y-13135676D01*
X6096028Y-12926152D02*
X6048409Y-13069009D01*
X6048409Y-13069009D02*
X6172219Y-13069009D01*
X6286505Y-12935676D02*
X6305552Y-12935676D01*
X6305552Y-12935676D02*
X6324600Y-12945200D01*
X6324600Y-12945200D02*
X6334124Y-12954724D01*
X6334124Y-12954724D02*
X6343648Y-12973771D01*
X6343648Y-12973771D02*
X6353171Y-13011867D01*
X6353171Y-13011867D02*
X6353171Y-13059486D01*
X6353171Y-13059486D02*
X6343648Y-13097581D01*
X6343648Y-13097581D02*
X6334124Y-13116628D01*
X6334124Y-13116628D02*
X6324600Y-13126152D01*
X6324600Y-13126152D02*
X6305552Y-13135676D01*
X6305552Y-13135676D02*
X6286505Y-13135676D01*
X6286505Y-13135676D02*
X6267457Y-13126152D01*
X6267457Y-13126152D02*
X6257933Y-13116628D01*
X6257933Y-13116628D02*
X6248409Y-13097581D01*
X6248409Y-13097581D02*
X6238886Y-13059486D01*
X6238886Y-13059486D02*
X6238886Y-13011867D01*
X6238886Y-13011867D02*
X6248409Y-12973771D01*
X6248409Y-12973771D02*
X6257933Y-12954724D01*
X6257933Y-12954724D02*
X6267457Y-12945200D01*
X6267457Y-12945200D02*
X6286505Y-12935676D01*
X6476981Y-12935676D02*
X6496029Y-12935676D01*
X6496029Y-12935676D02*
X6515076Y-12945200D01*
X6515076Y-12945200D02*
X6524600Y-12954724D01*
X6524600Y-12954724D02*
X6534124Y-12973771D01*
X6534124Y-12973771D02*
X6543648Y-13011867D01*
X6543648Y-13011867D02*
X6543648Y-13059486D01*
X6543648Y-13059486D02*
X6534124Y-13097581D01*
X6534124Y-13097581D02*
X6524600Y-13116628D01*
X6524600Y-13116628D02*
X6515076Y-13126152D01*
X6515076Y-13126152D02*
X6496029Y-13135676D01*
X6496029Y-13135676D02*
X6476981Y-13135676D01*
X6476981Y-13135676D02*
X6457933Y-13126152D01*
X6457933Y-13126152D02*
X6448409Y-13116628D01*
X6448409Y-13116628D02*
X6438886Y-13097581D01*
X6438886Y-13097581D02*
X6429362Y-13059486D01*
X6429362Y-13059486D02*
X6429362Y-13011867D01*
X6429362Y-13011867D02*
X6438886Y-12973771D01*
X6438886Y-12973771D02*
X6448409Y-12954724D01*
X6448409Y-12954724D02*
X6457933Y-12945200D01*
X6457933Y-12945200D02*
X6476981Y-12935676D01*
X6629362Y-13135676D02*
X6629362Y-13002343D01*
X6629362Y-13021390D02*
X6638886Y-13011867D01*
X6638886Y-13011867D02*
X6657933Y-13002343D01*
X6657933Y-13002343D02*
X6686505Y-13002343D01*
X6686505Y-13002343D02*
X6705552Y-13011867D01*
X6705552Y-13011867D02*
X6715076Y-13030914D01*
X6715076Y-13030914D02*
X6715076Y-13135676D01*
X6715076Y-13030914D02*
X6724600Y-13011867D01*
X6724600Y-13011867D02*
X6743648Y-13002343D01*
X6743648Y-13002343D02*
X6772219Y-13002343D01*
X6772219Y-13002343D02*
X6791267Y-13011867D01*
X6791267Y-13011867D02*
X6800790Y-13030914D01*
X6800790Y-13030914D02*
X6800790Y-13135676D01*
X6896029Y-13135676D02*
X6896029Y-13002343D01*
X6896029Y-13021390D02*
X6905552Y-13011867D01*
X6905552Y-13011867D02*
X6924600Y-13002343D01*
X6924600Y-13002343D02*
X6953171Y-13002343D01*
X6953171Y-13002343D02*
X6972219Y-13011867D01*
X6972219Y-13011867D02*
X6981743Y-13030914D01*
X6981743Y-13030914D02*
X6981743Y-13135676D01*
X6981743Y-13030914D02*
X6991267Y-13011867D01*
X6991267Y-13011867D02*
X7010314Y-13002343D01*
X7010314Y-13002343D02*
X7038886Y-13002343D01*
X7038886Y-13002343D02*
X7057933Y-13011867D01*
X7057933Y-13011867D02*
X7067457Y-13030914D01*
X7067457Y-13030914D02*
X7067457Y-13135676D01*
X7425552Y-12926152D02*
X7254124Y-13183295D01*
X7650314Y-12935676D02*
X7669362Y-12935676D01*
X7669362Y-12935676D02*
X7688410Y-12945200D01*
X7688410Y-12945200D02*
X7697933Y-12954724D01*
X7697933Y-12954724D02*
X7707457Y-12973771D01*
X7707457Y-12973771D02*
X7716981Y-13011867D01*
X7716981Y-13011867D02*
X7716981Y-13059486D01*
X7716981Y-13059486D02*
X7707457Y-13097581D01*
X7707457Y-13097581D02*
X7697933Y-13116628D01*
X7697933Y-13116628D02*
X7688410Y-13126152D01*
X7688410Y-13126152D02*
X7669362Y-13135676D01*
X7669362Y-13135676D02*
X7650314Y-13135676D01*
X7650314Y-13135676D02*
X7631267Y-13126152D01*
X7631267Y-13126152D02*
X7621743Y-13116628D01*
X7621743Y-13116628D02*
X7612219Y-13097581D01*
X7612219Y-13097581D02*
X7602695Y-13059486D01*
X7602695Y-13059486D02*
X7602695Y-13011867D01*
X7602695Y-13011867D02*
X7612219Y-12973771D01*
X7612219Y-12973771D02*
X7621743Y-12954724D01*
X7621743Y-12954724D02*
X7631267Y-12945200D01*
X7631267Y-12945200D02*
X7650314Y-12935676D01*
X7802695Y-13116628D02*
X7812219Y-13126152D01*
X7812219Y-13126152D02*
X7802695Y-13135676D01*
X7802695Y-13135676D02*
X7793171Y-13126152D01*
X7793171Y-13126152D02*
X7802695Y-13116628D01*
X7802695Y-13116628D02*
X7802695Y-13135676D01*
X7936029Y-12935676D02*
X7955076Y-12935676D01*
X7955076Y-12935676D02*
X7974124Y-12945200D01*
X7974124Y-12945200D02*
X7983648Y-12954724D01*
X7983648Y-12954724D02*
X7993171Y-12973771D01*
X7993171Y-12973771D02*
X8002695Y-13011867D01*
X8002695Y-13011867D02*
X8002695Y-13059486D01*
X8002695Y-13059486D02*
X7993171Y-13097581D01*
X7993171Y-13097581D02*
X7983648Y-13116628D01*
X7983648Y-13116628D02*
X7974124Y-13126152D01*
X7974124Y-13126152D02*
X7955076Y-13135676D01*
X7955076Y-13135676D02*
X7936029Y-13135676D01*
X7936029Y-13135676D02*
X7916981Y-13126152D01*
X7916981Y-13126152D02*
X7907457Y-13116628D01*
X7907457Y-13116628D02*
X7897933Y-13097581D01*
X7897933Y-13097581D02*
X7888410Y-13059486D01*
X7888410Y-13059486D02*
X7888410Y-13011867D01*
X7888410Y-13011867D02*
X7897933Y-12973771D01*
X7897933Y-12973771D02*
X7907457Y-12954724D01*
X7907457Y-12954724D02*
X7916981Y-12945200D01*
X7916981Y-12945200D02*
X7936029Y-12935676D01*
X8193171Y-13135676D02*
X8078886Y-13135676D01*
X8136029Y-13135676D02*
X8136029Y-12935676D01*
X8136029Y-12935676D02*
X8116981Y-12964248D01*
X8116981Y-12964248D02*
X8097933Y-12983295D01*
X8097933Y-12983295D02*
X8078886Y-12992819D01*
X8374124Y-12935676D02*
X8278886Y-12935676D01*
X8278886Y-12935676D02*
X8269362Y-13030914D01*
X8269362Y-13030914D02*
X8278886Y-13021390D01*
X8278886Y-13021390D02*
X8297933Y-13011867D01*
X8297933Y-13011867D02*
X8345552Y-13011867D01*
X8345552Y-13011867D02*
X8364600Y-13021390D01*
X8364600Y-13021390D02*
X8374124Y-13030914D01*
X8374124Y-13030914D02*
X8383648Y-13049962D01*
X8383648Y-13049962D02*
X8383648Y-13097581D01*
X8383648Y-13097581D02*
X8374124Y-13116628D01*
X8374124Y-13116628D02*
X8364600Y-13126152D01*
X8364600Y-13126152D02*
X8345552Y-13135676D01*
X8345552Y-13135676D02*
X8297933Y-13135676D01*
X8297933Y-13135676D02*
X8278886Y-13126152D01*
X8278886Y-13126152D02*
X8269362Y-13116628D01*
X8450314Y-12935676D02*
X8583648Y-12935676D01*
X8583648Y-12935676D02*
X8497933Y-13135676D01*
X8650314Y-12935676D02*
X8650314Y-12973771D01*
X8726505Y-12935676D02*
X8726505Y-12973771D01*
X8989362Y-13211867D02*
X8979838Y-13202343D01*
X8979838Y-13202343D02*
X8960791Y-13173771D01*
X8960791Y-13173771D02*
X8951267Y-13154724D01*
X8951267Y-13154724D02*
X8941743Y-13126152D01*
X8941743Y-13126152D02*
X8932219Y-13078533D01*
X8932219Y-13078533D02*
X8932219Y-13040438D01*
X8932219Y-13040438D02*
X8941743Y-12992819D01*
X8941743Y-12992819D02*
X8951267Y-12964248D01*
X8951267Y-12964248D02*
X8960791Y-12945200D01*
X8960791Y-12945200D02*
X8979838Y-12916628D01*
X8979838Y-12916628D02*
X8989362Y-12907105D01*
X9075076Y-13135676D02*
X9113172Y-13135676D01*
X9113172Y-13135676D02*
X9132219Y-13126152D01*
X9132219Y-13126152D02*
X9141743Y-13116628D01*
X9141743Y-13116628D02*
X9160791Y-13088057D01*
X9160791Y-13088057D02*
X9170314Y-13049962D01*
X9170314Y-13049962D02*
X9170314Y-12973771D01*
X9170314Y-12973771D02*
X9160791Y-12954724D01*
X9160791Y-12954724D02*
X9151267Y-12945200D01*
X9151267Y-12945200D02*
X9132219Y-12935676D01*
X9132219Y-12935676D02*
X9094124Y-12935676D01*
X9094124Y-12935676D02*
X9075076Y-12945200D01*
X9075076Y-12945200D02*
X9065553Y-12954724D01*
X9065553Y-12954724D02*
X9056029Y-12973771D01*
X9056029Y-12973771D02*
X9056029Y-13021390D01*
X9056029Y-13021390D02*
X9065553Y-13040438D01*
X9065553Y-13040438D02*
X9075076Y-13049962D01*
X9075076Y-13049962D02*
X9094124Y-13059486D01*
X9094124Y-13059486D02*
X9132219Y-13059486D01*
X9132219Y-13059486D02*
X9151267Y-13049962D01*
X9151267Y-13049962D02*
X9160791Y-13040438D01*
X9160791Y-13040438D02*
X9170314Y-13021390D01*
X9376029Y-13135676D02*
X9376029Y-12935676D01*
X9461743Y-13135676D02*
X9461743Y-13030914D01*
X9461743Y-13030914D02*
X9452219Y-13011867D01*
X9452219Y-13011867D02*
X9433172Y-13002343D01*
X9433172Y-13002343D02*
X9404600Y-13002343D01*
X9404600Y-13002343D02*
X9385553Y-13011867D01*
X9385553Y-13011867D02*
X9376029Y-13021390D01*
X9585553Y-13135676D02*
X9566505Y-13126152D01*
X9566505Y-13126152D02*
X9556981Y-13116628D01*
X9556981Y-13116628D02*
X9547457Y-13097581D01*
X9547457Y-13097581D02*
X9547457Y-13040438D01*
X9547457Y-13040438D02*
X9556981Y-13021390D01*
X9556981Y-13021390D02*
X9566505Y-13011867D01*
X9566505Y-13011867D02*
X9585553Y-13002343D01*
X9585553Y-13002343D02*
X9614124Y-13002343D01*
X9614124Y-13002343D02*
X9633172Y-13011867D01*
X9633172Y-13011867D02*
X9642695Y-13021390D01*
X9642695Y-13021390D02*
X9652219Y-13040438D01*
X9652219Y-13040438D02*
X9652219Y-13097581D01*
X9652219Y-13097581D02*
X9642695Y-13116628D01*
X9642695Y-13116628D02*
X9633172Y-13126152D01*
X9633172Y-13126152D02*
X9614124Y-13135676D01*
X9614124Y-13135676D02*
X9585553Y-13135676D01*
X9766505Y-13135676D02*
X9747457Y-13126152D01*
X9747457Y-13126152D02*
X9737934Y-13107105D01*
X9737934Y-13107105D02*
X9737934Y-12935676D01*
X9918886Y-13126152D02*
X9899838Y-13135676D01*
X9899838Y-13135676D02*
X9861743Y-13135676D01*
X9861743Y-13135676D02*
X9842695Y-13126152D01*
X9842695Y-13126152D02*
X9833172Y-13107105D01*
X9833172Y-13107105D02*
X9833172Y-13030914D01*
X9833172Y-13030914D02*
X9842695Y-13011867D01*
X9842695Y-13011867D02*
X9861743Y-13002343D01*
X9861743Y-13002343D02*
X9899838Y-13002343D01*
X9899838Y-13002343D02*
X9918886Y-13011867D01*
X9918886Y-13011867D02*
X9928410Y-13030914D01*
X9928410Y-13030914D02*
X9928410Y-13049962D01*
X9928410Y-13049962D02*
X9833172Y-13069009D01*
X10004600Y-13126152D02*
X10023648Y-13135676D01*
X10023648Y-13135676D02*
X10061743Y-13135676D01*
X10061743Y-13135676D02*
X10080791Y-13126152D01*
X10080791Y-13126152D02*
X10090315Y-13107105D01*
X10090315Y-13107105D02*
X10090315Y-13097581D01*
X10090315Y-13097581D02*
X10080791Y-13078533D01*
X10080791Y-13078533D02*
X10061743Y-13069009D01*
X10061743Y-13069009D02*
X10033172Y-13069009D01*
X10033172Y-13069009D02*
X10014124Y-13059486D01*
X10014124Y-13059486D02*
X10004600Y-13040438D01*
X10004600Y-13040438D02*
X10004600Y-13030914D01*
X10004600Y-13030914D02*
X10014124Y-13011867D01*
X10014124Y-13011867D02*
X10033172Y-13002343D01*
X10033172Y-13002343D02*
X10061743Y-13002343D01*
X10061743Y-13002343D02*
X10080791Y-13011867D01*
X10156981Y-13211867D02*
X10166505Y-13202343D01*
X10166505Y-13202343D02*
X10185553Y-13173771D01*
X10185553Y-13173771D02*
X10195076Y-13154724D01*
X10195076Y-13154724D02*
X10204600Y-13126152D01*
X10204600Y-13126152D02*
X10214124Y-13078533D01*
X10214124Y-13078533D02*
X10214124Y-13040438D01*
X10214124Y-13040438D02*
X10204600Y-12992819D01*
X10204600Y-12992819D02*
X10195076Y-12964248D01*
X10195076Y-12964248D02*
X10185553Y-12945200D01*
X10185553Y-12945200D02*
X10166505Y-12916628D01*
X10166505Y-12916628D02*
X10156981Y-12907105D01*
D13*
X5524600Y-13326200D02*
G75*
G03*
X5524600Y-13326200I-40000J0D01*
G01*
D11*
X5810314Y-13199676D02*
X5829362Y-13199676D01*
X5829362Y-13199676D02*
X5848409Y-13209200D01*
X5848409Y-13209200D02*
X5857933Y-13218724D01*
X5857933Y-13218724D02*
X5867457Y-13237771D01*
X5867457Y-13237771D02*
X5876981Y-13275867D01*
X5876981Y-13275867D02*
X5876981Y-13323486D01*
X5876981Y-13323486D02*
X5867457Y-13361581D01*
X5867457Y-13361581D02*
X5857933Y-13380628D01*
X5857933Y-13380628D02*
X5848409Y-13390152D01*
X5848409Y-13390152D02*
X5829362Y-13399676D01*
X5829362Y-13399676D02*
X5810314Y-13399676D01*
X5810314Y-13399676D02*
X5791267Y-13390152D01*
X5791267Y-13390152D02*
X5781743Y-13380628D01*
X5781743Y-13380628D02*
X5772219Y-13361581D01*
X5772219Y-13361581D02*
X5762695Y-13323486D01*
X5762695Y-13323486D02*
X5762695Y-13275867D01*
X5762695Y-13275867D02*
X5772219Y-13237771D01*
X5772219Y-13237771D02*
X5781743Y-13218724D01*
X5781743Y-13218724D02*
X5791267Y-13209200D01*
X5791267Y-13209200D02*
X5810314Y-13199676D01*
X5962695Y-13380628D02*
X5972219Y-13390152D01*
X5972219Y-13390152D02*
X5962695Y-13399676D01*
X5962695Y-13399676D02*
X5953171Y-13390152D01*
X5953171Y-13390152D02*
X5962695Y-13380628D01*
X5962695Y-13380628D02*
X5962695Y-13399676D01*
X6086505Y-13285390D02*
X6067457Y-13275867D01*
X6067457Y-13275867D02*
X6057933Y-13266343D01*
X6057933Y-13266343D02*
X6048409Y-13247295D01*
X6048409Y-13247295D02*
X6048409Y-13237771D01*
X6048409Y-13237771D02*
X6057933Y-13218724D01*
X6057933Y-13218724D02*
X6067457Y-13209200D01*
X6067457Y-13209200D02*
X6086505Y-13199676D01*
X6086505Y-13199676D02*
X6124600Y-13199676D01*
X6124600Y-13199676D02*
X6143648Y-13209200D01*
X6143648Y-13209200D02*
X6153171Y-13218724D01*
X6153171Y-13218724D02*
X6162695Y-13237771D01*
X6162695Y-13237771D02*
X6162695Y-13247295D01*
X6162695Y-13247295D02*
X6153171Y-13266343D01*
X6153171Y-13266343D02*
X6143648Y-13275867D01*
X6143648Y-13275867D02*
X6124600Y-13285390D01*
X6124600Y-13285390D02*
X6086505Y-13285390D01*
X6086505Y-13285390D02*
X6067457Y-13294914D01*
X6067457Y-13294914D02*
X6057933Y-13304438D01*
X6057933Y-13304438D02*
X6048409Y-13323486D01*
X6048409Y-13323486D02*
X6048409Y-13361581D01*
X6048409Y-13361581D02*
X6057933Y-13380628D01*
X6057933Y-13380628D02*
X6067457Y-13390152D01*
X6067457Y-13390152D02*
X6086505Y-13399676D01*
X6086505Y-13399676D02*
X6124600Y-13399676D01*
X6124600Y-13399676D02*
X6143648Y-13390152D01*
X6143648Y-13390152D02*
X6153171Y-13380628D01*
X6153171Y-13380628D02*
X6162695Y-13361581D01*
X6162695Y-13361581D02*
X6162695Y-13323486D01*
X6162695Y-13323486D02*
X6153171Y-13304438D01*
X6153171Y-13304438D02*
X6143648Y-13294914D01*
X6143648Y-13294914D02*
X6124600Y-13285390D01*
X6286505Y-13199676D02*
X6305552Y-13199676D01*
X6305552Y-13199676D02*
X6324600Y-13209200D01*
X6324600Y-13209200D02*
X6334124Y-13218724D01*
X6334124Y-13218724D02*
X6343648Y-13237771D01*
X6343648Y-13237771D02*
X6353171Y-13275867D01*
X6353171Y-13275867D02*
X6353171Y-13323486D01*
X6353171Y-13323486D02*
X6343648Y-13361581D01*
X6343648Y-13361581D02*
X6334124Y-13380628D01*
X6334124Y-13380628D02*
X6324600Y-13390152D01*
X6324600Y-13390152D02*
X6305552Y-13399676D01*
X6305552Y-13399676D02*
X6286505Y-13399676D01*
X6286505Y-13399676D02*
X6267457Y-13390152D01*
X6267457Y-13390152D02*
X6257933Y-13380628D01*
X6257933Y-13380628D02*
X6248409Y-13361581D01*
X6248409Y-13361581D02*
X6238886Y-13323486D01*
X6238886Y-13323486D02*
X6238886Y-13275867D01*
X6238886Y-13275867D02*
X6248409Y-13237771D01*
X6248409Y-13237771D02*
X6257933Y-13218724D01*
X6257933Y-13218724D02*
X6267457Y-13209200D01*
X6267457Y-13209200D02*
X6286505Y-13199676D01*
X6476981Y-13199676D02*
X6496029Y-13199676D01*
X6496029Y-13199676D02*
X6515076Y-13209200D01*
X6515076Y-13209200D02*
X6524600Y-13218724D01*
X6524600Y-13218724D02*
X6534124Y-13237771D01*
X6534124Y-13237771D02*
X6543648Y-13275867D01*
X6543648Y-13275867D02*
X6543648Y-13323486D01*
X6543648Y-13323486D02*
X6534124Y-13361581D01*
X6534124Y-13361581D02*
X6524600Y-13380628D01*
X6524600Y-13380628D02*
X6515076Y-13390152D01*
X6515076Y-13390152D02*
X6496029Y-13399676D01*
X6496029Y-13399676D02*
X6476981Y-13399676D01*
X6476981Y-13399676D02*
X6457933Y-13390152D01*
X6457933Y-13390152D02*
X6448409Y-13380628D01*
X6448409Y-13380628D02*
X6438886Y-13361581D01*
X6438886Y-13361581D02*
X6429362Y-13323486D01*
X6429362Y-13323486D02*
X6429362Y-13275867D01*
X6429362Y-13275867D02*
X6438886Y-13237771D01*
X6438886Y-13237771D02*
X6448409Y-13218724D01*
X6448409Y-13218724D02*
X6457933Y-13209200D01*
X6457933Y-13209200D02*
X6476981Y-13199676D01*
X6629362Y-13399676D02*
X6629362Y-13266343D01*
X6629362Y-13285390D02*
X6638886Y-13275867D01*
X6638886Y-13275867D02*
X6657933Y-13266343D01*
X6657933Y-13266343D02*
X6686505Y-13266343D01*
X6686505Y-13266343D02*
X6705552Y-13275867D01*
X6705552Y-13275867D02*
X6715076Y-13294914D01*
X6715076Y-13294914D02*
X6715076Y-13399676D01*
X6715076Y-13294914D02*
X6724600Y-13275867D01*
X6724600Y-13275867D02*
X6743648Y-13266343D01*
X6743648Y-13266343D02*
X6772219Y-13266343D01*
X6772219Y-13266343D02*
X6791267Y-13275867D01*
X6791267Y-13275867D02*
X6800790Y-13294914D01*
X6800790Y-13294914D02*
X6800790Y-13399676D01*
X6896029Y-13399676D02*
X6896029Y-13266343D01*
X6896029Y-13285390D02*
X6905552Y-13275867D01*
X6905552Y-13275867D02*
X6924600Y-13266343D01*
X6924600Y-13266343D02*
X6953171Y-13266343D01*
X6953171Y-13266343D02*
X6972219Y-13275867D01*
X6972219Y-13275867D02*
X6981743Y-13294914D01*
X6981743Y-13294914D02*
X6981743Y-13399676D01*
X6981743Y-13294914D02*
X6991267Y-13275867D01*
X6991267Y-13275867D02*
X7010314Y-13266343D01*
X7010314Y-13266343D02*
X7038886Y-13266343D01*
X7038886Y-13266343D02*
X7057933Y-13275867D01*
X7057933Y-13275867D02*
X7067457Y-13294914D01*
X7067457Y-13294914D02*
X7067457Y-13399676D01*
X7425552Y-13190152D02*
X7254124Y-13447295D01*
X7650314Y-13199676D02*
X7669362Y-13199676D01*
X7669362Y-13199676D02*
X7688410Y-13209200D01*
X7688410Y-13209200D02*
X7697933Y-13218724D01*
X7697933Y-13218724D02*
X7707457Y-13237771D01*
X7707457Y-13237771D02*
X7716981Y-13275867D01*
X7716981Y-13275867D02*
X7716981Y-13323486D01*
X7716981Y-13323486D02*
X7707457Y-13361581D01*
X7707457Y-13361581D02*
X7697933Y-13380628D01*
X7697933Y-13380628D02*
X7688410Y-13390152D01*
X7688410Y-13390152D02*
X7669362Y-13399676D01*
X7669362Y-13399676D02*
X7650314Y-13399676D01*
X7650314Y-13399676D02*
X7631267Y-13390152D01*
X7631267Y-13390152D02*
X7621743Y-13380628D01*
X7621743Y-13380628D02*
X7612219Y-13361581D01*
X7612219Y-13361581D02*
X7602695Y-13323486D01*
X7602695Y-13323486D02*
X7602695Y-13275867D01*
X7602695Y-13275867D02*
X7612219Y-13237771D01*
X7612219Y-13237771D02*
X7621743Y-13218724D01*
X7621743Y-13218724D02*
X7631267Y-13209200D01*
X7631267Y-13209200D02*
X7650314Y-13199676D01*
X7802695Y-13380628D02*
X7812219Y-13390152D01*
X7812219Y-13390152D02*
X7802695Y-13399676D01*
X7802695Y-13399676D02*
X7793171Y-13390152D01*
X7793171Y-13390152D02*
X7802695Y-13380628D01*
X7802695Y-13380628D02*
X7802695Y-13399676D01*
X7936029Y-13199676D02*
X7955076Y-13199676D01*
X7955076Y-13199676D02*
X7974124Y-13209200D01*
X7974124Y-13209200D02*
X7983648Y-13218724D01*
X7983648Y-13218724D02*
X7993171Y-13237771D01*
X7993171Y-13237771D02*
X8002695Y-13275867D01*
X8002695Y-13275867D02*
X8002695Y-13323486D01*
X8002695Y-13323486D02*
X7993171Y-13361581D01*
X7993171Y-13361581D02*
X7983648Y-13380628D01*
X7983648Y-13380628D02*
X7974124Y-13390152D01*
X7974124Y-13390152D02*
X7955076Y-13399676D01*
X7955076Y-13399676D02*
X7936029Y-13399676D01*
X7936029Y-13399676D02*
X7916981Y-13390152D01*
X7916981Y-13390152D02*
X7907457Y-13380628D01*
X7907457Y-13380628D02*
X7897933Y-13361581D01*
X7897933Y-13361581D02*
X7888410Y-13323486D01*
X7888410Y-13323486D02*
X7888410Y-13275867D01*
X7888410Y-13275867D02*
X7897933Y-13237771D01*
X7897933Y-13237771D02*
X7907457Y-13218724D01*
X7907457Y-13218724D02*
X7916981Y-13209200D01*
X7916981Y-13209200D02*
X7936029Y-13199676D01*
X8069362Y-13199676D02*
X8193171Y-13199676D01*
X8193171Y-13199676D02*
X8126505Y-13275867D01*
X8126505Y-13275867D02*
X8155076Y-13275867D01*
X8155076Y-13275867D02*
X8174124Y-13285390D01*
X8174124Y-13285390D02*
X8183648Y-13294914D01*
X8183648Y-13294914D02*
X8193171Y-13313962D01*
X8193171Y-13313962D02*
X8193171Y-13361581D01*
X8193171Y-13361581D02*
X8183648Y-13380628D01*
X8183648Y-13380628D02*
X8174124Y-13390152D01*
X8174124Y-13390152D02*
X8155076Y-13399676D01*
X8155076Y-13399676D02*
X8097933Y-13399676D01*
X8097933Y-13399676D02*
X8078886Y-13390152D01*
X8078886Y-13390152D02*
X8069362Y-13380628D01*
X8383648Y-13399676D02*
X8269362Y-13399676D01*
X8326505Y-13399676D02*
X8326505Y-13199676D01*
X8326505Y-13199676D02*
X8307457Y-13228248D01*
X8307457Y-13228248D02*
X8288410Y-13247295D01*
X8288410Y-13247295D02*
X8269362Y-13256819D01*
X8564600Y-13199676D02*
X8469362Y-13199676D01*
X8469362Y-13199676D02*
X8459838Y-13294914D01*
X8459838Y-13294914D02*
X8469362Y-13285390D01*
X8469362Y-13285390D02*
X8488410Y-13275867D01*
X8488410Y-13275867D02*
X8536029Y-13275867D01*
X8536029Y-13275867D02*
X8555076Y-13285390D01*
X8555076Y-13285390D02*
X8564600Y-13294914D01*
X8564600Y-13294914D02*
X8574124Y-13313962D01*
X8574124Y-13313962D02*
X8574124Y-13361581D01*
X8574124Y-13361581D02*
X8564600Y-13380628D01*
X8564600Y-13380628D02*
X8555076Y-13390152D01*
X8555076Y-13390152D02*
X8536029Y-13399676D01*
X8536029Y-13399676D02*
X8488410Y-13399676D01*
X8488410Y-13399676D02*
X8469362Y-13390152D01*
X8469362Y-13390152D02*
X8459838Y-13380628D01*
X8650314Y-13199676D02*
X8650314Y-13237771D01*
X8726505Y-13199676D02*
X8726505Y-13237771D01*
X8989362Y-13475867D02*
X8979838Y-13466343D01*
X8979838Y-13466343D02*
X8960791Y-13437771D01*
X8960791Y-13437771D02*
X8951267Y-13418724D01*
X8951267Y-13418724D02*
X8941743Y-13390152D01*
X8941743Y-13390152D02*
X8932219Y-13342533D01*
X8932219Y-13342533D02*
X8932219Y-13304438D01*
X8932219Y-13304438D02*
X8941743Y-13256819D01*
X8941743Y-13256819D02*
X8951267Y-13228248D01*
X8951267Y-13228248D02*
X8960791Y-13209200D01*
X8960791Y-13209200D02*
X8979838Y-13180628D01*
X8979838Y-13180628D02*
X8989362Y-13171105D01*
X9056029Y-13218724D02*
X9065553Y-13209200D01*
X9065553Y-13209200D02*
X9084600Y-13199676D01*
X9084600Y-13199676D02*
X9132219Y-13199676D01*
X9132219Y-13199676D02*
X9151267Y-13209200D01*
X9151267Y-13209200D02*
X9160791Y-13218724D01*
X9160791Y-13218724D02*
X9170314Y-13237771D01*
X9170314Y-13237771D02*
X9170314Y-13256819D01*
X9170314Y-13256819D02*
X9160791Y-13285390D01*
X9160791Y-13285390D02*
X9046505Y-13399676D01*
X9046505Y-13399676D02*
X9170314Y-13399676D01*
X9294124Y-13199676D02*
X9313172Y-13199676D01*
X9313172Y-13199676D02*
X9332219Y-13209200D01*
X9332219Y-13209200D02*
X9341743Y-13218724D01*
X9341743Y-13218724D02*
X9351267Y-13237771D01*
X9351267Y-13237771D02*
X9360791Y-13275867D01*
X9360791Y-13275867D02*
X9360791Y-13323486D01*
X9360791Y-13323486D02*
X9351267Y-13361581D01*
X9351267Y-13361581D02*
X9341743Y-13380628D01*
X9341743Y-13380628D02*
X9332219Y-13390152D01*
X9332219Y-13390152D02*
X9313172Y-13399676D01*
X9313172Y-13399676D02*
X9294124Y-13399676D01*
X9294124Y-13399676D02*
X9275076Y-13390152D01*
X9275076Y-13390152D02*
X9265553Y-13380628D01*
X9265553Y-13380628D02*
X9256029Y-13361581D01*
X9256029Y-13361581D02*
X9246505Y-13323486D01*
X9246505Y-13323486D02*
X9246505Y-13275867D01*
X9246505Y-13275867D02*
X9256029Y-13237771D01*
X9256029Y-13237771D02*
X9265553Y-13218724D01*
X9265553Y-13218724D02*
X9275076Y-13209200D01*
X9275076Y-13209200D02*
X9294124Y-13199676D01*
X9541743Y-13199676D02*
X9446505Y-13199676D01*
X9446505Y-13199676D02*
X9436981Y-13294914D01*
X9436981Y-13294914D02*
X9446505Y-13285390D01*
X9446505Y-13285390D02*
X9465553Y-13275867D01*
X9465553Y-13275867D02*
X9513172Y-13275867D01*
X9513172Y-13275867D02*
X9532219Y-13285390D01*
X9532219Y-13285390D02*
X9541743Y-13294914D01*
X9541743Y-13294914D02*
X9551267Y-13313962D01*
X9551267Y-13313962D02*
X9551267Y-13361581D01*
X9551267Y-13361581D02*
X9541743Y-13380628D01*
X9541743Y-13380628D02*
X9532219Y-13390152D01*
X9532219Y-13390152D02*
X9513172Y-13399676D01*
X9513172Y-13399676D02*
X9465553Y-13399676D01*
X9465553Y-13399676D02*
X9446505Y-13390152D01*
X9446505Y-13390152D02*
X9436981Y-13380628D01*
X9756981Y-13399676D02*
X9756981Y-13199676D01*
X9842695Y-13399676D02*
X9842695Y-13294914D01*
X9842695Y-13294914D02*
X9833172Y-13275867D01*
X9833172Y-13275867D02*
X9814124Y-13266343D01*
X9814124Y-13266343D02*
X9785553Y-13266343D01*
X9785553Y-13266343D02*
X9766505Y-13275867D01*
X9766505Y-13275867D02*
X9756981Y-13285390D01*
X9966505Y-13399676D02*
X9947457Y-13390152D01*
X9947457Y-13390152D02*
X9937934Y-13380628D01*
X9937934Y-13380628D02*
X9928410Y-13361581D01*
X9928410Y-13361581D02*
X9928410Y-13304438D01*
X9928410Y-13304438D02*
X9937934Y-13285390D01*
X9937934Y-13285390D02*
X9947457Y-13275867D01*
X9947457Y-13275867D02*
X9966505Y-13266343D01*
X9966505Y-13266343D02*
X9995076Y-13266343D01*
X9995076Y-13266343D02*
X10014124Y-13275867D01*
X10014124Y-13275867D02*
X10023648Y-13285390D01*
X10023648Y-13285390D02*
X10033172Y-13304438D01*
X10033172Y-13304438D02*
X10033172Y-13361581D01*
X10033172Y-13361581D02*
X10023648Y-13380628D01*
X10023648Y-13380628D02*
X10014124Y-13390152D01*
X10014124Y-13390152D02*
X9995076Y-13399676D01*
X9995076Y-13399676D02*
X9966505Y-13399676D01*
X10147457Y-13399676D02*
X10128410Y-13390152D01*
X10128410Y-13390152D02*
X10118886Y-13371105D01*
X10118886Y-13371105D02*
X10118886Y-13199676D01*
X10299838Y-13390152D02*
X10280791Y-13399676D01*
X10280791Y-13399676D02*
X10242695Y-13399676D01*
X10242695Y-13399676D02*
X10223648Y-13390152D01*
X10223648Y-13390152D02*
X10214124Y-13371105D01*
X10214124Y-13371105D02*
X10214124Y-13294914D01*
X10214124Y-13294914D02*
X10223648Y-13275867D01*
X10223648Y-13275867D02*
X10242695Y-13266343D01*
X10242695Y-13266343D02*
X10280791Y-13266343D01*
X10280791Y-13266343D02*
X10299838Y-13275867D01*
X10299838Y-13275867D02*
X10309362Y-13294914D01*
X10309362Y-13294914D02*
X10309362Y-13313962D01*
X10309362Y-13313962D02*
X10214124Y-13333009D01*
X10385553Y-13390152D02*
X10404600Y-13399676D01*
X10404600Y-13399676D02*
X10442695Y-13399676D01*
X10442695Y-13399676D02*
X10461743Y-13390152D01*
X10461743Y-13390152D02*
X10471267Y-13371105D01*
X10471267Y-13371105D02*
X10471267Y-13361581D01*
X10471267Y-13361581D02*
X10461743Y-13342533D01*
X10461743Y-13342533D02*
X10442695Y-13333009D01*
X10442695Y-13333009D02*
X10414124Y-13333009D01*
X10414124Y-13333009D02*
X10395076Y-13323486D01*
X10395076Y-13323486D02*
X10385553Y-13304438D01*
X10385553Y-13304438D02*
X10385553Y-13294914D01*
X10385553Y-13294914D02*
X10395076Y-13275867D01*
X10395076Y-13275867D02*
X10414124Y-13266343D01*
X10414124Y-13266343D02*
X10442695Y-13266343D01*
X10442695Y-13266343D02*
X10461743Y-13275867D01*
X10537934Y-13475867D02*
X10547457Y-13466343D01*
X10547457Y-13466343D02*
X10566505Y-13437771D01*
X10566505Y-13437771D02*
X10576029Y-13418724D01*
X10576029Y-13418724D02*
X10585553Y-13390152D01*
X10585553Y-13390152D02*
X10595076Y-13342533D01*
X10595076Y-13342533D02*
X10595076Y-13304438D01*
X10595076Y-13304438D02*
X10585553Y-13256819D01*
X10585553Y-13256819D02*
X10576029Y-13228248D01*
X10576029Y-13228248D02*
X10566505Y-13209200D01*
X10566505Y-13209200D02*
X10547457Y-13180628D01*
X10547457Y-13180628D02*
X10537934Y-13171105D01*
D14*
X5479600Y-13545200D02*
X5479600Y-13635200D01*
X5434600Y-13590200D02*
X5524600Y-13590200D01*
D11*
X5810314Y-13463676D02*
X5829362Y-13463676D01*
X5829362Y-13463676D02*
X5848409Y-13473200D01*
X5848409Y-13473200D02*
X5857933Y-13482724D01*
X5857933Y-13482724D02*
X5867457Y-13501771D01*
X5867457Y-13501771D02*
X5876981Y-13539867D01*
X5876981Y-13539867D02*
X5876981Y-13587486D01*
X5876981Y-13587486D02*
X5867457Y-13625581D01*
X5867457Y-13625581D02*
X5857933Y-13644628D01*
X5857933Y-13644628D02*
X5848409Y-13654152D01*
X5848409Y-13654152D02*
X5829362Y-13663676D01*
X5829362Y-13663676D02*
X5810314Y-13663676D01*
X5810314Y-13663676D02*
X5791267Y-13654152D01*
X5791267Y-13654152D02*
X5781743Y-13644628D01*
X5781743Y-13644628D02*
X5772219Y-13625581D01*
X5772219Y-13625581D02*
X5762695Y-13587486D01*
X5762695Y-13587486D02*
X5762695Y-13539867D01*
X5762695Y-13539867D02*
X5772219Y-13501771D01*
X5772219Y-13501771D02*
X5781743Y-13482724D01*
X5781743Y-13482724D02*
X5791267Y-13473200D01*
X5791267Y-13473200D02*
X5810314Y-13463676D01*
X5962695Y-13644628D02*
X5972219Y-13654152D01*
X5972219Y-13654152D02*
X5962695Y-13663676D01*
X5962695Y-13663676D02*
X5953171Y-13654152D01*
X5953171Y-13654152D02*
X5962695Y-13644628D01*
X5962695Y-13644628D02*
X5962695Y-13663676D01*
X6067457Y-13663676D02*
X6105552Y-13663676D01*
X6105552Y-13663676D02*
X6124600Y-13654152D01*
X6124600Y-13654152D02*
X6134124Y-13644628D01*
X6134124Y-13644628D02*
X6153171Y-13616057D01*
X6153171Y-13616057D02*
X6162695Y-13577962D01*
X6162695Y-13577962D02*
X6162695Y-13501771D01*
X6162695Y-13501771D02*
X6153171Y-13482724D01*
X6153171Y-13482724D02*
X6143648Y-13473200D01*
X6143648Y-13473200D02*
X6124600Y-13463676D01*
X6124600Y-13463676D02*
X6086505Y-13463676D01*
X6086505Y-13463676D02*
X6067457Y-13473200D01*
X6067457Y-13473200D02*
X6057933Y-13482724D01*
X6057933Y-13482724D02*
X6048409Y-13501771D01*
X6048409Y-13501771D02*
X6048409Y-13549390D01*
X6048409Y-13549390D02*
X6057933Y-13568438D01*
X6057933Y-13568438D02*
X6067457Y-13577962D01*
X6067457Y-13577962D02*
X6086505Y-13587486D01*
X6086505Y-13587486D02*
X6124600Y-13587486D01*
X6124600Y-13587486D02*
X6143648Y-13577962D01*
X6143648Y-13577962D02*
X6153171Y-13568438D01*
X6153171Y-13568438D02*
X6162695Y-13549390D01*
X6286505Y-13463676D02*
X6305552Y-13463676D01*
X6305552Y-13463676D02*
X6324600Y-13473200D01*
X6324600Y-13473200D02*
X6334124Y-13482724D01*
X6334124Y-13482724D02*
X6343648Y-13501771D01*
X6343648Y-13501771D02*
X6353171Y-13539867D01*
X6353171Y-13539867D02*
X6353171Y-13587486D01*
X6353171Y-13587486D02*
X6343648Y-13625581D01*
X6343648Y-13625581D02*
X6334124Y-13644628D01*
X6334124Y-13644628D02*
X6324600Y-13654152D01*
X6324600Y-13654152D02*
X6305552Y-13663676D01*
X6305552Y-13663676D02*
X6286505Y-13663676D01*
X6286505Y-13663676D02*
X6267457Y-13654152D01*
X6267457Y-13654152D02*
X6257933Y-13644628D01*
X6257933Y-13644628D02*
X6248409Y-13625581D01*
X6248409Y-13625581D02*
X6238886Y-13587486D01*
X6238886Y-13587486D02*
X6238886Y-13539867D01*
X6238886Y-13539867D02*
X6248409Y-13501771D01*
X6248409Y-13501771D02*
X6257933Y-13482724D01*
X6257933Y-13482724D02*
X6267457Y-13473200D01*
X6267457Y-13473200D02*
X6286505Y-13463676D01*
X6476981Y-13463676D02*
X6496029Y-13463676D01*
X6496029Y-13463676D02*
X6515076Y-13473200D01*
X6515076Y-13473200D02*
X6524600Y-13482724D01*
X6524600Y-13482724D02*
X6534124Y-13501771D01*
X6534124Y-13501771D02*
X6543648Y-13539867D01*
X6543648Y-13539867D02*
X6543648Y-13587486D01*
X6543648Y-13587486D02*
X6534124Y-13625581D01*
X6534124Y-13625581D02*
X6524600Y-13644628D01*
X6524600Y-13644628D02*
X6515076Y-13654152D01*
X6515076Y-13654152D02*
X6496029Y-13663676D01*
X6496029Y-13663676D02*
X6476981Y-13663676D01*
X6476981Y-13663676D02*
X6457933Y-13654152D01*
X6457933Y-13654152D02*
X6448409Y-13644628D01*
X6448409Y-13644628D02*
X6438886Y-13625581D01*
X6438886Y-13625581D02*
X6429362Y-13587486D01*
X6429362Y-13587486D02*
X6429362Y-13539867D01*
X6429362Y-13539867D02*
X6438886Y-13501771D01*
X6438886Y-13501771D02*
X6448409Y-13482724D01*
X6448409Y-13482724D02*
X6457933Y-13473200D01*
X6457933Y-13473200D02*
X6476981Y-13463676D01*
X6629362Y-13663676D02*
X6629362Y-13530343D01*
X6629362Y-13549390D02*
X6638886Y-13539867D01*
X6638886Y-13539867D02*
X6657933Y-13530343D01*
X6657933Y-13530343D02*
X6686505Y-13530343D01*
X6686505Y-13530343D02*
X6705552Y-13539867D01*
X6705552Y-13539867D02*
X6715076Y-13558914D01*
X6715076Y-13558914D02*
X6715076Y-13663676D01*
X6715076Y-13558914D02*
X6724600Y-13539867D01*
X6724600Y-13539867D02*
X6743648Y-13530343D01*
X6743648Y-13530343D02*
X6772219Y-13530343D01*
X6772219Y-13530343D02*
X6791267Y-13539867D01*
X6791267Y-13539867D02*
X6800790Y-13558914D01*
X6800790Y-13558914D02*
X6800790Y-13663676D01*
X6896029Y-13663676D02*
X6896029Y-13530343D01*
X6896029Y-13549390D02*
X6905552Y-13539867D01*
X6905552Y-13539867D02*
X6924600Y-13530343D01*
X6924600Y-13530343D02*
X6953171Y-13530343D01*
X6953171Y-13530343D02*
X6972219Y-13539867D01*
X6972219Y-13539867D02*
X6981743Y-13558914D01*
X6981743Y-13558914D02*
X6981743Y-13663676D01*
X6981743Y-13558914D02*
X6991267Y-13539867D01*
X6991267Y-13539867D02*
X7010314Y-13530343D01*
X7010314Y-13530343D02*
X7038886Y-13530343D01*
X7038886Y-13530343D02*
X7057933Y-13539867D01*
X7057933Y-13539867D02*
X7067457Y-13558914D01*
X7067457Y-13558914D02*
X7067457Y-13663676D01*
X7425552Y-13454152D02*
X7254124Y-13711295D01*
X7650314Y-13463676D02*
X7669362Y-13463676D01*
X7669362Y-13463676D02*
X7688410Y-13473200D01*
X7688410Y-13473200D02*
X7697933Y-13482724D01*
X7697933Y-13482724D02*
X7707457Y-13501771D01*
X7707457Y-13501771D02*
X7716981Y-13539867D01*
X7716981Y-13539867D02*
X7716981Y-13587486D01*
X7716981Y-13587486D02*
X7707457Y-13625581D01*
X7707457Y-13625581D02*
X7697933Y-13644628D01*
X7697933Y-13644628D02*
X7688410Y-13654152D01*
X7688410Y-13654152D02*
X7669362Y-13663676D01*
X7669362Y-13663676D02*
X7650314Y-13663676D01*
X7650314Y-13663676D02*
X7631267Y-13654152D01*
X7631267Y-13654152D02*
X7621743Y-13644628D01*
X7621743Y-13644628D02*
X7612219Y-13625581D01*
X7612219Y-13625581D02*
X7602695Y-13587486D01*
X7602695Y-13587486D02*
X7602695Y-13539867D01*
X7602695Y-13539867D02*
X7612219Y-13501771D01*
X7612219Y-13501771D02*
X7621743Y-13482724D01*
X7621743Y-13482724D02*
X7631267Y-13473200D01*
X7631267Y-13473200D02*
X7650314Y-13463676D01*
X7802695Y-13644628D02*
X7812219Y-13654152D01*
X7812219Y-13654152D02*
X7802695Y-13663676D01*
X7802695Y-13663676D02*
X7793171Y-13654152D01*
X7793171Y-13654152D02*
X7802695Y-13644628D01*
X7802695Y-13644628D02*
X7802695Y-13663676D01*
X7936029Y-13463676D02*
X7955076Y-13463676D01*
X7955076Y-13463676D02*
X7974124Y-13473200D01*
X7974124Y-13473200D02*
X7983648Y-13482724D01*
X7983648Y-13482724D02*
X7993171Y-13501771D01*
X7993171Y-13501771D02*
X8002695Y-13539867D01*
X8002695Y-13539867D02*
X8002695Y-13587486D01*
X8002695Y-13587486D02*
X7993171Y-13625581D01*
X7993171Y-13625581D02*
X7983648Y-13644628D01*
X7983648Y-13644628D02*
X7974124Y-13654152D01*
X7974124Y-13654152D02*
X7955076Y-13663676D01*
X7955076Y-13663676D02*
X7936029Y-13663676D01*
X7936029Y-13663676D02*
X7916981Y-13654152D01*
X7916981Y-13654152D02*
X7907457Y-13644628D01*
X7907457Y-13644628D02*
X7897933Y-13625581D01*
X7897933Y-13625581D02*
X7888410Y-13587486D01*
X7888410Y-13587486D02*
X7888410Y-13539867D01*
X7888410Y-13539867D02*
X7897933Y-13501771D01*
X7897933Y-13501771D02*
X7907457Y-13482724D01*
X7907457Y-13482724D02*
X7916981Y-13473200D01*
X7916981Y-13473200D02*
X7936029Y-13463676D01*
X8069362Y-13463676D02*
X8193171Y-13463676D01*
X8193171Y-13463676D02*
X8126505Y-13539867D01*
X8126505Y-13539867D02*
X8155076Y-13539867D01*
X8155076Y-13539867D02*
X8174124Y-13549390D01*
X8174124Y-13549390D02*
X8183648Y-13558914D01*
X8183648Y-13558914D02*
X8193171Y-13577962D01*
X8193171Y-13577962D02*
X8193171Y-13625581D01*
X8193171Y-13625581D02*
X8183648Y-13644628D01*
X8183648Y-13644628D02*
X8174124Y-13654152D01*
X8174124Y-13654152D02*
X8155076Y-13663676D01*
X8155076Y-13663676D02*
X8097933Y-13663676D01*
X8097933Y-13663676D02*
X8078886Y-13654152D01*
X8078886Y-13654152D02*
X8069362Y-13644628D01*
X8374124Y-13463676D02*
X8278886Y-13463676D01*
X8278886Y-13463676D02*
X8269362Y-13558914D01*
X8269362Y-13558914D02*
X8278886Y-13549390D01*
X8278886Y-13549390D02*
X8297933Y-13539867D01*
X8297933Y-13539867D02*
X8345552Y-13539867D01*
X8345552Y-13539867D02*
X8364600Y-13549390D01*
X8364600Y-13549390D02*
X8374124Y-13558914D01*
X8374124Y-13558914D02*
X8383648Y-13577962D01*
X8383648Y-13577962D02*
X8383648Y-13625581D01*
X8383648Y-13625581D02*
X8374124Y-13644628D01*
X8374124Y-13644628D02*
X8364600Y-13654152D01*
X8364600Y-13654152D02*
X8345552Y-13663676D01*
X8345552Y-13663676D02*
X8297933Y-13663676D01*
X8297933Y-13663676D02*
X8278886Y-13654152D01*
X8278886Y-13654152D02*
X8269362Y-13644628D01*
X8555076Y-13530343D02*
X8555076Y-13663676D01*
X8507457Y-13454152D02*
X8459838Y-13597009D01*
X8459838Y-13597009D02*
X8583648Y-13597009D01*
X8650314Y-13463676D02*
X8650314Y-13501771D01*
X8726505Y-13463676D02*
X8726505Y-13501771D01*
X8989362Y-13739867D02*
X8979838Y-13730343D01*
X8979838Y-13730343D02*
X8960791Y-13701771D01*
X8960791Y-13701771D02*
X8951267Y-13682724D01*
X8951267Y-13682724D02*
X8941743Y-13654152D01*
X8941743Y-13654152D02*
X8932219Y-13606533D01*
X8932219Y-13606533D02*
X8932219Y-13568438D01*
X8932219Y-13568438D02*
X8941743Y-13520819D01*
X8941743Y-13520819D02*
X8951267Y-13492248D01*
X8951267Y-13492248D02*
X8960791Y-13473200D01*
X8960791Y-13473200D02*
X8979838Y-13444628D01*
X8979838Y-13444628D02*
X8989362Y-13435105D01*
X9151267Y-13463676D02*
X9113172Y-13463676D01*
X9113172Y-13463676D02*
X9094124Y-13473200D01*
X9094124Y-13473200D02*
X9084600Y-13482724D01*
X9084600Y-13482724D02*
X9065553Y-13511295D01*
X9065553Y-13511295D02*
X9056029Y-13549390D01*
X9056029Y-13549390D02*
X9056029Y-13625581D01*
X9056029Y-13625581D02*
X9065553Y-13644628D01*
X9065553Y-13644628D02*
X9075076Y-13654152D01*
X9075076Y-13654152D02*
X9094124Y-13663676D01*
X9094124Y-13663676D02*
X9132219Y-13663676D01*
X9132219Y-13663676D02*
X9151267Y-13654152D01*
X9151267Y-13654152D02*
X9160791Y-13644628D01*
X9160791Y-13644628D02*
X9170314Y-13625581D01*
X9170314Y-13625581D02*
X9170314Y-13577962D01*
X9170314Y-13577962D02*
X9160791Y-13558914D01*
X9160791Y-13558914D02*
X9151267Y-13549390D01*
X9151267Y-13549390D02*
X9132219Y-13539867D01*
X9132219Y-13539867D02*
X9094124Y-13539867D01*
X9094124Y-13539867D02*
X9075076Y-13549390D01*
X9075076Y-13549390D02*
X9065553Y-13558914D01*
X9065553Y-13558914D02*
X9056029Y-13577962D01*
X9376029Y-13663676D02*
X9376029Y-13463676D01*
X9461743Y-13663676D02*
X9461743Y-13558914D01*
X9461743Y-13558914D02*
X9452219Y-13539867D01*
X9452219Y-13539867D02*
X9433172Y-13530343D01*
X9433172Y-13530343D02*
X9404600Y-13530343D01*
X9404600Y-13530343D02*
X9385553Y-13539867D01*
X9385553Y-13539867D02*
X9376029Y-13549390D01*
X9585553Y-13663676D02*
X9566505Y-13654152D01*
X9566505Y-13654152D02*
X9556981Y-13644628D01*
X9556981Y-13644628D02*
X9547457Y-13625581D01*
X9547457Y-13625581D02*
X9547457Y-13568438D01*
X9547457Y-13568438D02*
X9556981Y-13549390D01*
X9556981Y-13549390D02*
X9566505Y-13539867D01*
X9566505Y-13539867D02*
X9585553Y-13530343D01*
X9585553Y-13530343D02*
X9614124Y-13530343D01*
X9614124Y-13530343D02*
X9633172Y-13539867D01*
X9633172Y-13539867D02*
X9642695Y-13549390D01*
X9642695Y-13549390D02*
X9652219Y-13568438D01*
X9652219Y-13568438D02*
X9652219Y-13625581D01*
X9652219Y-13625581D02*
X9642695Y-13644628D01*
X9642695Y-13644628D02*
X9633172Y-13654152D01*
X9633172Y-13654152D02*
X9614124Y-13663676D01*
X9614124Y-13663676D02*
X9585553Y-13663676D01*
X9766505Y-13663676D02*
X9747457Y-13654152D01*
X9747457Y-13654152D02*
X9737934Y-13635105D01*
X9737934Y-13635105D02*
X9737934Y-13463676D01*
X9918886Y-13654152D02*
X9899838Y-13663676D01*
X9899838Y-13663676D02*
X9861743Y-13663676D01*
X9861743Y-13663676D02*
X9842695Y-13654152D01*
X9842695Y-13654152D02*
X9833172Y-13635105D01*
X9833172Y-13635105D02*
X9833172Y-13558914D01*
X9833172Y-13558914D02*
X9842695Y-13539867D01*
X9842695Y-13539867D02*
X9861743Y-13530343D01*
X9861743Y-13530343D02*
X9899838Y-13530343D01*
X9899838Y-13530343D02*
X9918886Y-13539867D01*
X9918886Y-13539867D02*
X9928410Y-13558914D01*
X9928410Y-13558914D02*
X9928410Y-13577962D01*
X9928410Y-13577962D02*
X9833172Y-13597009D01*
X10004600Y-13654152D02*
X10023648Y-13663676D01*
X10023648Y-13663676D02*
X10061743Y-13663676D01*
X10061743Y-13663676D02*
X10080791Y-13654152D01*
X10080791Y-13654152D02*
X10090315Y-13635105D01*
X10090315Y-13635105D02*
X10090315Y-13625581D01*
X10090315Y-13625581D02*
X10080791Y-13606533D01*
X10080791Y-13606533D02*
X10061743Y-13597009D01*
X10061743Y-13597009D02*
X10033172Y-13597009D01*
X10033172Y-13597009D02*
X10014124Y-13587486D01*
X10014124Y-13587486D02*
X10004600Y-13568438D01*
X10004600Y-13568438D02*
X10004600Y-13558914D01*
X10004600Y-13558914D02*
X10014124Y-13539867D01*
X10014124Y-13539867D02*
X10033172Y-13530343D01*
X10033172Y-13530343D02*
X10061743Y-13530343D01*
X10061743Y-13530343D02*
X10080791Y-13539867D01*
X10156981Y-13739867D02*
X10166505Y-13730343D01*
X10166505Y-13730343D02*
X10185553Y-13701771D01*
X10185553Y-13701771D02*
X10195076Y-13682724D01*
X10195076Y-13682724D02*
X10204600Y-13654152D01*
X10204600Y-13654152D02*
X10214124Y-13606533D01*
X10214124Y-13606533D02*
X10214124Y-13568438D01*
X10214124Y-13568438D02*
X10204600Y-13520819D01*
X10204600Y-13520819D02*
X10195076Y-13492248D01*
X10195076Y-13492248D02*
X10185553Y-13473200D01*
X10185553Y-13473200D02*
X10166505Y-13444628D01*
X10166505Y-13444628D02*
X10156981Y-13435105D01*
D10*
X5509956Y-13889556D02*
X5509956Y-13818844D01*
X5439244Y-13818844D01*
X5439244Y-13889556D01*
X5509956Y-13889556D01*
D11*
X5876981Y-13927676D02*
X5762695Y-13927676D01*
X5819838Y-13927676D02*
X5819838Y-13727676D01*
X5819838Y-13727676D02*
X5800790Y-13756248D01*
X5800790Y-13756248D02*
X5781743Y-13775295D01*
X5781743Y-13775295D02*
X5762695Y-13784819D01*
X5962695Y-13908628D02*
X5972219Y-13918152D01*
X5972219Y-13918152D02*
X5962695Y-13927676D01*
X5962695Y-13927676D02*
X5953171Y-13918152D01*
X5953171Y-13918152D02*
X5962695Y-13908628D01*
X5962695Y-13908628D02*
X5962695Y-13927676D01*
X6096028Y-13727676D02*
X6115076Y-13727676D01*
X6115076Y-13727676D02*
X6134124Y-13737200D01*
X6134124Y-13737200D02*
X6143648Y-13746724D01*
X6143648Y-13746724D02*
X6153171Y-13765771D01*
X6153171Y-13765771D02*
X6162695Y-13803867D01*
X6162695Y-13803867D02*
X6162695Y-13851486D01*
X6162695Y-13851486D02*
X6153171Y-13889581D01*
X6153171Y-13889581D02*
X6143648Y-13908628D01*
X6143648Y-13908628D02*
X6134124Y-13918152D01*
X6134124Y-13918152D02*
X6115076Y-13927676D01*
X6115076Y-13927676D02*
X6096028Y-13927676D01*
X6096028Y-13927676D02*
X6076981Y-13918152D01*
X6076981Y-13918152D02*
X6067457Y-13908628D01*
X6067457Y-13908628D02*
X6057933Y-13889581D01*
X6057933Y-13889581D02*
X6048409Y-13851486D01*
X6048409Y-13851486D02*
X6048409Y-13803867D01*
X6048409Y-13803867D02*
X6057933Y-13765771D01*
X6057933Y-13765771D02*
X6067457Y-13746724D01*
X6067457Y-13746724D02*
X6076981Y-13737200D01*
X6076981Y-13737200D02*
X6096028Y-13727676D01*
X6286505Y-13727676D02*
X6305552Y-13727676D01*
X6305552Y-13727676D02*
X6324600Y-13737200D01*
X6324600Y-13737200D02*
X6334124Y-13746724D01*
X6334124Y-13746724D02*
X6343648Y-13765771D01*
X6343648Y-13765771D02*
X6353171Y-13803867D01*
X6353171Y-13803867D02*
X6353171Y-13851486D01*
X6353171Y-13851486D02*
X6343648Y-13889581D01*
X6343648Y-13889581D02*
X6334124Y-13908628D01*
X6334124Y-13908628D02*
X6324600Y-13918152D01*
X6324600Y-13918152D02*
X6305552Y-13927676D01*
X6305552Y-13927676D02*
X6286505Y-13927676D01*
X6286505Y-13927676D02*
X6267457Y-13918152D01*
X6267457Y-13918152D02*
X6257933Y-13908628D01*
X6257933Y-13908628D02*
X6248409Y-13889581D01*
X6248409Y-13889581D02*
X6238886Y-13851486D01*
X6238886Y-13851486D02*
X6238886Y-13803867D01*
X6238886Y-13803867D02*
X6248409Y-13765771D01*
X6248409Y-13765771D02*
X6257933Y-13746724D01*
X6257933Y-13746724D02*
X6267457Y-13737200D01*
X6267457Y-13737200D02*
X6286505Y-13727676D01*
X6476981Y-13727676D02*
X6496029Y-13727676D01*
X6496029Y-13727676D02*
X6515076Y-13737200D01*
X6515076Y-13737200D02*
X6524600Y-13746724D01*
X6524600Y-13746724D02*
X6534124Y-13765771D01*
X6534124Y-13765771D02*
X6543648Y-13803867D01*
X6543648Y-13803867D02*
X6543648Y-13851486D01*
X6543648Y-13851486D02*
X6534124Y-13889581D01*
X6534124Y-13889581D02*
X6524600Y-13908628D01*
X6524600Y-13908628D02*
X6515076Y-13918152D01*
X6515076Y-13918152D02*
X6496029Y-13927676D01*
X6496029Y-13927676D02*
X6476981Y-13927676D01*
X6476981Y-13927676D02*
X6457933Y-13918152D01*
X6457933Y-13918152D02*
X6448409Y-13908628D01*
X6448409Y-13908628D02*
X6438886Y-13889581D01*
X6438886Y-13889581D02*
X6429362Y-13851486D01*
X6429362Y-13851486D02*
X6429362Y-13803867D01*
X6429362Y-13803867D02*
X6438886Y-13765771D01*
X6438886Y-13765771D02*
X6448409Y-13746724D01*
X6448409Y-13746724D02*
X6457933Y-13737200D01*
X6457933Y-13737200D02*
X6476981Y-13727676D01*
X6629362Y-13927676D02*
X6629362Y-13794343D01*
X6629362Y-13813390D02*
X6638886Y-13803867D01*
X6638886Y-13803867D02*
X6657933Y-13794343D01*
X6657933Y-13794343D02*
X6686505Y-13794343D01*
X6686505Y-13794343D02*
X6705552Y-13803867D01*
X6705552Y-13803867D02*
X6715076Y-13822914D01*
X6715076Y-13822914D02*
X6715076Y-13927676D01*
X6715076Y-13822914D02*
X6724600Y-13803867D01*
X6724600Y-13803867D02*
X6743648Y-13794343D01*
X6743648Y-13794343D02*
X6772219Y-13794343D01*
X6772219Y-13794343D02*
X6791267Y-13803867D01*
X6791267Y-13803867D02*
X6800790Y-13822914D01*
X6800790Y-13822914D02*
X6800790Y-13927676D01*
X6896029Y-13927676D02*
X6896029Y-13794343D01*
X6896029Y-13813390D02*
X6905552Y-13803867D01*
X6905552Y-13803867D02*
X6924600Y-13794343D01*
X6924600Y-13794343D02*
X6953171Y-13794343D01*
X6953171Y-13794343D02*
X6972219Y-13803867D01*
X6972219Y-13803867D02*
X6981743Y-13822914D01*
X6981743Y-13822914D02*
X6981743Y-13927676D01*
X6981743Y-13822914D02*
X6991267Y-13803867D01*
X6991267Y-13803867D02*
X7010314Y-13794343D01*
X7010314Y-13794343D02*
X7038886Y-13794343D01*
X7038886Y-13794343D02*
X7057933Y-13803867D01*
X7057933Y-13803867D02*
X7067457Y-13822914D01*
X7067457Y-13822914D02*
X7067457Y-13927676D01*
X7425552Y-13718152D02*
X7254124Y-13975295D01*
X7650314Y-13727676D02*
X7669362Y-13727676D01*
X7669362Y-13727676D02*
X7688410Y-13737200D01*
X7688410Y-13737200D02*
X7697933Y-13746724D01*
X7697933Y-13746724D02*
X7707457Y-13765771D01*
X7707457Y-13765771D02*
X7716981Y-13803867D01*
X7716981Y-13803867D02*
X7716981Y-13851486D01*
X7716981Y-13851486D02*
X7707457Y-13889581D01*
X7707457Y-13889581D02*
X7697933Y-13908628D01*
X7697933Y-13908628D02*
X7688410Y-13918152D01*
X7688410Y-13918152D02*
X7669362Y-13927676D01*
X7669362Y-13927676D02*
X7650314Y-13927676D01*
X7650314Y-13927676D02*
X7631267Y-13918152D01*
X7631267Y-13918152D02*
X7621743Y-13908628D01*
X7621743Y-13908628D02*
X7612219Y-13889581D01*
X7612219Y-13889581D02*
X7602695Y-13851486D01*
X7602695Y-13851486D02*
X7602695Y-13803867D01*
X7602695Y-13803867D02*
X7612219Y-13765771D01*
X7612219Y-13765771D02*
X7621743Y-13746724D01*
X7621743Y-13746724D02*
X7631267Y-13737200D01*
X7631267Y-13737200D02*
X7650314Y-13727676D01*
X7802695Y-13908628D02*
X7812219Y-13918152D01*
X7812219Y-13918152D02*
X7802695Y-13927676D01*
X7802695Y-13927676D02*
X7793171Y-13918152D01*
X7793171Y-13918152D02*
X7802695Y-13908628D01*
X7802695Y-13908628D02*
X7802695Y-13927676D01*
X7936029Y-13727676D02*
X7955076Y-13727676D01*
X7955076Y-13727676D02*
X7974124Y-13737200D01*
X7974124Y-13737200D02*
X7983648Y-13746724D01*
X7983648Y-13746724D02*
X7993171Y-13765771D01*
X7993171Y-13765771D02*
X8002695Y-13803867D01*
X8002695Y-13803867D02*
X8002695Y-13851486D01*
X8002695Y-13851486D02*
X7993171Y-13889581D01*
X7993171Y-13889581D02*
X7983648Y-13908628D01*
X7983648Y-13908628D02*
X7974124Y-13918152D01*
X7974124Y-13918152D02*
X7955076Y-13927676D01*
X7955076Y-13927676D02*
X7936029Y-13927676D01*
X7936029Y-13927676D02*
X7916981Y-13918152D01*
X7916981Y-13918152D02*
X7907457Y-13908628D01*
X7907457Y-13908628D02*
X7897933Y-13889581D01*
X7897933Y-13889581D02*
X7888410Y-13851486D01*
X7888410Y-13851486D02*
X7888410Y-13803867D01*
X7888410Y-13803867D02*
X7897933Y-13765771D01*
X7897933Y-13765771D02*
X7907457Y-13746724D01*
X7907457Y-13746724D02*
X7916981Y-13737200D01*
X7916981Y-13737200D02*
X7936029Y-13727676D01*
X8069362Y-13727676D02*
X8193171Y-13727676D01*
X8193171Y-13727676D02*
X8126505Y-13803867D01*
X8126505Y-13803867D02*
X8155076Y-13803867D01*
X8155076Y-13803867D02*
X8174124Y-13813390D01*
X8174124Y-13813390D02*
X8183648Y-13822914D01*
X8183648Y-13822914D02*
X8193171Y-13841962D01*
X8193171Y-13841962D02*
X8193171Y-13889581D01*
X8193171Y-13889581D02*
X8183648Y-13908628D01*
X8183648Y-13908628D02*
X8174124Y-13918152D01*
X8174124Y-13918152D02*
X8155076Y-13927676D01*
X8155076Y-13927676D02*
X8097933Y-13927676D01*
X8097933Y-13927676D02*
X8078886Y-13918152D01*
X8078886Y-13918152D02*
X8069362Y-13908628D01*
X8288410Y-13927676D02*
X8326505Y-13927676D01*
X8326505Y-13927676D02*
X8345552Y-13918152D01*
X8345552Y-13918152D02*
X8355076Y-13908628D01*
X8355076Y-13908628D02*
X8374124Y-13880057D01*
X8374124Y-13880057D02*
X8383648Y-13841962D01*
X8383648Y-13841962D02*
X8383648Y-13765771D01*
X8383648Y-13765771D02*
X8374124Y-13746724D01*
X8374124Y-13746724D02*
X8364600Y-13737200D01*
X8364600Y-13737200D02*
X8345552Y-13727676D01*
X8345552Y-13727676D02*
X8307457Y-13727676D01*
X8307457Y-13727676D02*
X8288410Y-13737200D01*
X8288410Y-13737200D02*
X8278886Y-13746724D01*
X8278886Y-13746724D02*
X8269362Y-13765771D01*
X8269362Y-13765771D02*
X8269362Y-13813390D01*
X8269362Y-13813390D02*
X8278886Y-13832438D01*
X8278886Y-13832438D02*
X8288410Y-13841962D01*
X8288410Y-13841962D02*
X8307457Y-13851486D01*
X8307457Y-13851486D02*
X8345552Y-13851486D01*
X8345552Y-13851486D02*
X8364600Y-13841962D01*
X8364600Y-13841962D02*
X8374124Y-13832438D01*
X8374124Y-13832438D02*
X8383648Y-13813390D01*
X8555076Y-13794343D02*
X8555076Y-13927676D01*
X8507457Y-13718152D02*
X8459838Y-13861009D01*
X8459838Y-13861009D02*
X8583648Y-13861009D01*
X8650314Y-13727676D02*
X8650314Y-13765771D01*
X8726505Y-13727676D02*
X8726505Y-13765771D01*
X8989362Y-14003867D02*
X8979838Y-13994343D01*
X8979838Y-13994343D02*
X8960791Y-13965771D01*
X8960791Y-13965771D02*
X8951267Y-13946724D01*
X8951267Y-13946724D02*
X8941743Y-13918152D01*
X8941743Y-13918152D02*
X8932219Y-13870533D01*
X8932219Y-13870533D02*
X8932219Y-13832438D01*
X8932219Y-13832438D02*
X8941743Y-13784819D01*
X8941743Y-13784819D02*
X8951267Y-13756248D01*
X8951267Y-13756248D02*
X8960791Y-13737200D01*
X8960791Y-13737200D02*
X8979838Y-13708628D01*
X8979838Y-13708628D02*
X8989362Y-13699105D01*
X9056029Y-13746724D02*
X9065553Y-13737200D01*
X9065553Y-13737200D02*
X9084600Y-13727676D01*
X9084600Y-13727676D02*
X9132219Y-13727676D01*
X9132219Y-13727676D02*
X9151267Y-13737200D01*
X9151267Y-13737200D02*
X9160791Y-13746724D01*
X9160791Y-13746724D02*
X9170314Y-13765771D01*
X9170314Y-13765771D02*
X9170314Y-13784819D01*
X9170314Y-13784819D02*
X9160791Y-13813390D01*
X9160791Y-13813390D02*
X9046505Y-13927676D01*
X9046505Y-13927676D02*
X9170314Y-13927676D01*
X9246505Y-13746724D02*
X9256029Y-13737200D01*
X9256029Y-13737200D02*
X9275076Y-13727676D01*
X9275076Y-13727676D02*
X9322695Y-13727676D01*
X9322695Y-13727676D02*
X9341743Y-13737200D01*
X9341743Y-13737200D02*
X9351267Y-13746724D01*
X9351267Y-13746724D02*
X9360791Y-13765771D01*
X9360791Y-13765771D02*
X9360791Y-13784819D01*
X9360791Y-13784819D02*
X9351267Y-13813390D01*
X9351267Y-13813390D02*
X9236981Y-13927676D01*
X9236981Y-13927676D02*
X9360791Y-13927676D01*
X9566505Y-13927676D02*
X9566505Y-13727676D01*
X9652219Y-13927676D02*
X9652219Y-13822914D01*
X9652219Y-13822914D02*
X9642695Y-13803867D01*
X9642695Y-13803867D02*
X9623648Y-13794343D01*
X9623648Y-13794343D02*
X9595076Y-13794343D01*
X9595076Y-13794343D02*
X9576029Y-13803867D01*
X9576029Y-13803867D02*
X9566505Y-13813390D01*
X9776029Y-13927676D02*
X9756981Y-13918152D01*
X9756981Y-13918152D02*
X9747457Y-13908628D01*
X9747457Y-13908628D02*
X9737934Y-13889581D01*
X9737934Y-13889581D02*
X9737934Y-13832438D01*
X9737934Y-13832438D02*
X9747457Y-13813390D01*
X9747457Y-13813390D02*
X9756981Y-13803867D01*
X9756981Y-13803867D02*
X9776029Y-13794343D01*
X9776029Y-13794343D02*
X9804600Y-13794343D01*
X9804600Y-13794343D02*
X9823648Y-13803867D01*
X9823648Y-13803867D02*
X9833172Y-13813390D01*
X9833172Y-13813390D02*
X9842695Y-13832438D01*
X9842695Y-13832438D02*
X9842695Y-13889581D01*
X9842695Y-13889581D02*
X9833172Y-13908628D01*
X9833172Y-13908628D02*
X9823648Y-13918152D01*
X9823648Y-13918152D02*
X9804600Y-13927676D01*
X9804600Y-13927676D02*
X9776029Y-13927676D01*
X9956981Y-13927676D02*
X9937934Y-13918152D01*
X9937934Y-13918152D02*
X9928410Y-13899105D01*
X9928410Y-13899105D02*
X9928410Y-13727676D01*
X10109362Y-13918152D02*
X10090315Y-13927676D01*
X10090315Y-13927676D02*
X10052219Y-13927676D01*
X10052219Y-13927676D02*
X10033172Y-13918152D01*
X10033172Y-13918152D02*
X10023648Y-13899105D01*
X10023648Y-13899105D02*
X10023648Y-13822914D01*
X10023648Y-13822914D02*
X10033172Y-13803867D01*
X10033172Y-13803867D02*
X10052219Y-13794343D01*
X10052219Y-13794343D02*
X10090315Y-13794343D01*
X10090315Y-13794343D02*
X10109362Y-13803867D01*
X10109362Y-13803867D02*
X10118886Y-13822914D01*
X10118886Y-13822914D02*
X10118886Y-13841962D01*
X10118886Y-13841962D02*
X10023648Y-13861009D01*
X10195076Y-13918152D02*
X10214124Y-13927676D01*
X10214124Y-13927676D02*
X10252219Y-13927676D01*
X10252219Y-13927676D02*
X10271267Y-13918152D01*
X10271267Y-13918152D02*
X10280791Y-13899105D01*
X10280791Y-13899105D02*
X10280791Y-13889581D01*
X10280791Y-13889581D02*
X10271267Y-13870533D01*
X10271267Y-13870533D02*
X10252219Y-13861009D01*
X10252219Y-13861009D02*
X10223648Y-13861009D01*
X10223648Y-13861009D02*
X10204600Y-13851486D01*
X10204600Y-13851486D02*
X10195076Y-13832438D01*
X10195076Y-13832438D02*
X10195076Y-13822914D01*
X10195076Y-13822914D02*
X10204600Y-13803867D01*
X10204600Y-13803867D02*
X10223648Y-13794343D01*
X10223648Y-13794343D02*
X10252219Y-13794343D01*
X10252219Y-13794343D02*
X10271267Y-13803867D01*
X10347457Y-14003867D02*
X10356981Y-13994343D01*
X10356981Y-13994343D02*
X10376029Y-13965771D01*
X10376029Y-13965771D02*
X10385553Y-13946724D01*
X10385553Y-13946724D02*
X10395076Y-13918152D01*
X10395076Y-13918152D02*
X10404600Y-13870533D01*
X10404600Y-13870533D02*
X10404600Y-13832438D01*
X10404600Y-13832438D02*
X10395076Y-13784819D01*
X10395076Y-13784819D02*
X10385553Y-13756248D01*
X10385553Y-13756248D02*
X10376029Y-13737200D01*
X10376029Y-13737200D02*
X10356981Y-13708628D01*
X10356981Y-13708628D02*
X10347457Y-13699105D01*
D15*
X5469600Y-14173200D02*
X5524600Y-14118200D01*
X5469600Y-14063200D01*
X5414600Y-14118200D01*
X5469600Y-14173200D01*
D11*
X5876981Y-14191676D02*
X5762695Y-14191676D01*
X5819838Y-14191676D02*
X5819838Y-13991676D01*
X5819838Y-13991676D02*
X5800790Y-14020248D01*
X5800790Y-14020248D02*
X5781743Y-14039295D01*
X5781743Y-14039295D02*
X5762695Y-14048819D01*
X5962695Y-14172628D02*
X5972219Y-14182152D01*
X5972219Y-14182152D02*
X5962695Y-14191676D01*
X5962695Y-14191676D02*
X5953171Y-14182152D01*
X5953171Y-14182152D02*
X5962695Y-14172628D01*
X5962695Y-14172628D02*
X5962695Y-14191676D01*
X6162695Y-14191676D02*
X6048409Y-14191676D01*
X6105552Y-14191676D02*
X6105552Y-13991676D01*
X6105552Y-13991676D02*
X6086505Y-14020248D01*
X6086505Y-14020248D02*
X6067457Y-14039295D01*
X6067457Y-14039295D02*
X6048409Y-14048819D01*
X6286505Y-13991676D02*
X6305552Y-13991676D01*
X6305552Y-13991676D02*
X6324600Y-14001200D01*
X6324600Y-14001200D02*
X6334124Y-14010724D01*
X6334124Y-14010724D02*
X6343648Y-14029771D01*
X6343648Y-14029771D02*
X6353171Y-14067867D01*
X6353171Y-14067867D02*
X6353171Y-14115486D01*
X6353171Y-14115486D02*
X6343648Y-14153581D01*
X6343648Y-14153581D02*
X6334124Y-14172628D01*
X6334124Y-14172628D02*
X6324600Y-14182152D01*
X6324600Y-14182152D02*
X6305552Y-14191676D01*
X6305552Y-14191676D02*
X6286505Y-14191676D01*
X6286505Y-14191676D02*
X6267457Y-14182152D01*
X6267457Y-14182152D02*
X6257933Y-14172628D01*
X6257933Y-14172628D02*
X6248409Y-14153581D01*
X6248409Y-14153581D02*
X6238886Y-14115486D01*
X6238886Y-14115486D02*
X6238886Y-14067867D01*
X6238886Y-14067867D02*
X6248409Y-14029771D01*
X6248409Y-14029771D02*
X6257933Y-14010724D01*
X6257933Y-14010724D02*
X6267457Y-14001200D01*
X6267457Y-14001200D02*
X6286505Y-13991676D01*
X6476981Y-13991676D02*
X6496029Y-13991676D01*
X6496029Y-13991676D02*
X6515076Y-14001200D01*
X6515076Y-14001200D02*
X6524600Y-14010724D01*
X6524600Y-14010724D02*
X6534124Y-14029771D01*
X6534124Y-14029771D02*
X6543648Y-14067867D01*
X6543648Y-14067867D02*
X6543648Y-14115486D01*
X6543648Y-14115486D02*
X6534124Y-14153581D01*
X6534124Y-14153581D02*
X6524600Y-14172628D01*
X6524600Y-14172628D02*
X6515076Y-14182152D01*
X6515076Y-14182152D02*
X6496029Y-14191676D01*
X6496029Y-14191676D02*
X6476981Y-14191676D01*
X6476981Y-14191676D02*
X6457933Y-14182152D01*
X6457933Y-14182152D02*
X6448409Y-14172628D01*
X6448409Y-14172628D02*
X6438886Y-14153581D01*
X6438886Y-14153581D02*
X6429362Y-14115486D01*
X6429362Y-14115486D02*
X6429362Y-14067867D01*
X6429362Y-14067867D02*
X6438886Y-14029771D01*
X6438886Y-14029771D02*
X6448409Y-14010724D01*
X6448409Y-14010724D02*
X6457933Y-14001200D01*
X6457933Y-14001200D02*
X6476981Y-13991676D01*
X6629362Y-14191676D02*
X6629362Y-14058343D01*
X6629362Y-14077390D02*
X6638886Y-14067867D01*
X6638886Y-14067867D02*
X6657933Y-14058343D01*
X6657933Y-14058343D02*
X6686505Y-14058343D01*
X6686505Y-14058343D02*
X6705552Y-14067867D01*
X6705552Y-14067867D02*
X6715076Y-14086914D01*
X6715076Y-14086914D02*
X6715076Y-14191676D01*
X6715076Y-14086914D02*
X6724600Y-14067867D01*
X6724600Y-14067867D02*
X6743648Y-14058343D01*
X6743648Y-14058343D02*
X6772219Y-14058343D01*
X6772219Y-14058343D02*
X6791267Y-14067867D01*
X6791267Y-14067867D02*
X6800790Y-14086914D01*
X6800790Y-14086914D02*
X6800790Y-14191676D01*
X6896029Y-14191676D02*
X6896029Y-14058343D01*
X6896029Y-14077390D02*
X6905552Y-14067867D01*
X6905552Y-14067867D02*
X6924600Y-14058343D01*
X6924600Y-14058343D02*
X6953171Y-14058343D01*
X6953171Y-14058343D02*
X6972219Y-14067867D01*
X6972219Y-14067867D02*
X6981743Y-14086914D01*
X6981743Y-14086914D02*
X6981743Y-14191676D01*
X6981743Y-14086914D02*
X6991267Y-14067867D01*
X6991267Y-14067867D02*
X7010314Y-14058343D01*
X7010314Y-14058343D02*
X7038886Y-14058343D01*
X7038886Y-14058343D02*
X7057933Y-14067867D01*
X7057933Y-14067867D02*
X7067457Y-14086914D01*
X7067457Y-14086914D02*
X7067457Y-14191676D01*
X7425552Y-13982152D02*
X7254124Y-14239295D01*
X7650314Y-13991676D02*
X7669362Y-13991676D01*
X7669362Y-13991676D02*
X7688410Y-14001200D01*
X7688410Y-14001200D02*
X7697933Y-14010724D01*
X7697933Y-14010724D02*
X7707457Y-14029771D01*
X7707457Y-14029771D02*
X7716981Y-14067867D01*
X7716981Y-14067867D02*
X7716981Y-14115486D01*
X7716981Y-14115486D02*
X7707457Y-14153581D01*
X7707457Y-14153581D02*
X7697933Y-14172628D01*
X7697933Y-14172628D02*
X7688410Y-14182152D01*
X7688410Y-14182152D02*
X7669362Y-14191676D01*
X7669362Y-14191676D02*
X7650314Y-14191676D01*
X7650314Y-14191676D02*
X7631267Y-14182152D01*
X7631267Y-14182152D02*
X7621743Y-14172628D01*
X7621743Y-14172628D02*
X7612219Y-14153581D01*
X7612219Y-14153581D02*
X7602695Y-14115486D01*
X7602695Y-14115486D02*
X7602695Y-14067867D01*
X7602695Y-14067867D02*
X7612219Y-14029771D01*
X7612219Y-14029771D02*
X7621743Y-14010724D01*
X7621743Y-14010724D02*
X7631267Y-14001200D01*
X7631267Y-14001200D02*
X7650314Y-13991676D01*
X7802695Y-14172628D02*
X7812219Y-14182152D01*
X7812219Y-14182152D02*
X7802695Y-14191676D01*
X7802695Y-14191676D02*
X7793171Y-14182152D01*
X7793171Y-14182152D02*
X7802695Y-14172628D01*
X7802695Y-14172628D02*
X7802695Y-14191676D01*
X7936029Y-13991676D02*
X7955076Y-13991676D01*
X7955076Y-13991676D02*
X7974124Y-14001200D01*
X7974124Y-14001200D02*
X7983648Y-14010724D01*
X7983648Y-14010724D02*
X7993171Y-14029771D01*
X7993171Y-14029771D02*
X8002695Y-14067867D01*
X8002695Y-14067867D02*
X8002695Y-14115486D01*
X8002695Y-14115486D02*
X7993171Y-14153581D01*
X7993171Y-14153581D02*
X7983648Y-14172628D01*
X7983648Y-14172628D02*
X7974124Y-14182152D01*
X7974124Y-14182152D02*
X7955076Y-14191676D01*
X7955076Y-14191676D02*
X7936029Y-14191676D01*
X7936029Y-14191676D02*
X7916981Y-14182152D01*
X7916981Y-14182152D02*
X7907457Y-14172628D01*
X7907457Y-14172628D02*
X7897933Y-14153581D01*
X7897933Y-14153581D02*
X7888410Y-14115486D01*
X7888410Y-14115486D02*
X7888410Y-14067867D01*
X7888410Y-14067867D02*
X7897933Y-14029771D01*
X7897933Y-14029771D02*
X7907457Y-14010724D01*
X7907457Y-14010724D02*
X7916981Y-14001200D01*
X7916981Y-14001200D02*
X7936029Y-13991676D01*
X8174124Y-14058343D02*
X8174124Y-14191676D01*
X8126505Y-13982152D02*
X8078886Y-14125009D01*
X8078886Y-14125009D02*
X8202695Y-14125009D01*
X8259838Y-13991676D02*
X8383648Y-13991676D01*
X8383648Y-13991676D02*
X8316981Y-14067867D01*
X8316981Y-14067867D02*
X8345552Y-14067867D01*
X8345552Y-14067867D02*
X8364600Y-14077390D01*
X8364600Y-14077390D02*
X8374124Y-14086914D01*
X8374124Y-14086914D02*
X8383648Y-14105962D01*
X8383648Y-14105962D02*
X8383648Y-14153581D01*
X8383648Y-14153581D02*
X8374124Y-14172628D01*
X8374124Y-14172628D02*
X8364600Y-14182152D01*
X8364600Y-14182152D02*
X8345552Y-14191676D01*
X8345552Y-14191676D02*
X8288410Y-14191676D01*
X8288410Y-14191676D02*
X8269362Y-14182152D01*
X8269362Y-14182152D02*
X8259838Y-14172628D01*
X8450314Y-13991676D02*
X8574124Y-13991676D01*
X8574124Y-13991676D02*
X8507457Y-14067867D01*
X8507457Y-14067867D02*
X8536029Y-14067867D01*
X8536029Y-14067867D02*
X8555076Y-14077390D01*
X8555076Y-14077390D02*
X8564600Y-14086914D01*
X8564600Y-14086914D02*
X8574124Y-14105962D01*
X8574124Y-14105962D02*
X8574124Y-14153581D01*
X8574124Y-14153581D02*
X8564600Y-14172628D01*
X8564600Y-14172628D02*
X8555076Y-14182152D01*
X8555076Y-14182152D02*
X8536029Y-14191676D01*
X8536029Y-14191676D02*
X8478886Y-14191676D01*
X8478886Y-14191676D02*
X8459838Y-14182152D01*
X8459838Y-14182152D02*
X8450314Y-14172628D01*
X8650314Y-13991676D02*
X8650314Y-14029771D01*
X8726505Y-13991676D02*
X8726505Y-14029771D01*
X8989362Y-14267867D02*
X8979838Y-14258343D01*
X8979838Y-14258343D02*
X8960791Y-14229771D01*
X8960791Y-14229771D02*
X8951267Y-14210724D01*
X8951267Y-14210724D02*
X8941743Y-14182152D01*
X8941743Y-14182152D02*
X8932219Y-14134533D01*
X8932219Y-14134533D02*
X8932219Y-14096438D01*
X8932219Y-14096438D02*
X8941743Y-14048819D01*
X8941743Y-14048819D02*
X8951267Y-14020248D01*
X8951267Y-14020248D02*
X8960791Y-14001200D01*
X8960791Y-14001200D02*
X8979838Y-13972628D01*
X8979838Y-13972628D02*
X8989362Y-13963105D01*
X9151267Y-13991676D02*
X9113172Y-13991676D01*
X9113172Y-13991676D02*
X9094124Y-14001200D01*
X9094124Y-14001200D02*
X9084600Y-14010724D01*
X9084600Y-14010724D02*
X9065553Y-14039295D01*
X9065553Y-14039295D02*
X9056029Y-14077390D01*
X9056029Y-14077390D02*
X9056029Y-14153581D01*
X9056029Y-14153581D02*
X9065553Y-14172628D01*
X9065553Y-14172628D02*
X9075076Y-14182152D01*
X9075076Y-14182152D02*
X9094124Y-14191676D01*
X9094124Y-14191676D02*
X9132219Y-14191676D01*
X9132219Y-14191676D02*
X9151267Y-14182152D01*
X9151267Y-14182152D02*
X9160791Y-14172628D01*
X9160791Y-14172628D02*
X9170314Y-14153581D01*
X9170314Y-14153581D02*
X9170314Y-14105962D01*
X9170314Y-14105962D02*
X9160791Y-14086914D01*
X9160791Y-14086914D02*
X9151267Y-14077390D01*
X9151267Y-14077390D02*
X9132219Y-14067867D01*
X9132219Y-14067867D02*
X9094124Y-14067867D01*
X9094124Y-14067867D02*
X9075076Y-14077390D01*
X9075076Y-14077390D02*
X9065553Y-14086914D01*
X9065553Y-14086914D02*
X9056029Y-14105962D01*
X9376029Y-14191676D02*
X9376029Y-13991676D01*
X9461743Y-14191676D02*
X9461743Y-14086914D01*
X9461743Y-14086914D02*
X9452219Y-14067867D01*
X9452219Y-14067867D02*
X9433172Y-14058343D01*
X9433172Y-14058343D02*
X9404600Y-14058343D01*
X9404600Y-14058343D02*
X9385553Y-14067867D01*
X9385553Y-14067867D02*
X9376029Y-14077390D01*
X9585553Y-14191676D02*
X9566505Y-14182152D01*
X9566505Y-14182152D02*
X9556981Y-14172628D01*
X9556981Y-14172628D02*
X9547457Y-14153581D01*
X9547457Y-14153581D02*
X9547457Y-14096438D01*
X9547457Y-14096438D02*
X9556981Y-14077390D01*
X9556981Y-14077390D02*
X9566505Y-14067867D01*
X9566505Y-14067867D02*
X9585553Y-14058343D01*
X9585553Y-14058343D02*
X9614124Y-14058343D01*
X9614124Y-14058343D02*
X9633172Y-14067867D01*
X9633172Y-14067867D02*
X9642695Y-14077390D01*
X9642695Y-14077390D02*
X9652219Y-14096438D01*
X9652219Y-14096438D02*
X9652219Y-14153581D01*
X9652219Y-14153581D02*
X9642695Y-14172628D01*
X9642695Y-14172628D02*
X9633172Y-14182152D01*
X9633172Y-14182152D02*
X9614124Y-14191676D01*
X9614124Y-14191676D02*
X9585553Y-14191676D01*
X9766505Y-14191676D02*
X9747457Y-14182152D01*
X9747457Y-14182152D02*
X9737934Y-14163105D01*
X9737934Y-14163105D02*
X9737934Y-13991676D01*
X9918886Y-14182152D02*
X9899838Y-14191676D01*
X9899838Y-14191676D02*
X9861743Y-14191676D01*
X9861743Y-14191676D02*
X9842695Y-14182152D01*
X9842695Y-14182152D02*
X9833172Y-14163105D01*
X9833172Y-14163105D02*
X9833172Y-14086914D01*
X9833172Y-14086914D02*
X9842695Y-14067867D01*
X9842695Y-14067867D02*
X9861743Y-14058343D01*
X9861743Y-14058343D02*
X9899838Y-14058343D01*
X9899838Y-14058343D02*
X9918886Y-14067867D01*
X9918886Y-14067867D02*
X9928410Y-14086914D01*
X9928410Y-14086914D02*
X9928410Y-14105962D01*
X9928410Y-14105962D02*
X9833172Y-14125009D01*
X10004600Y-14182152D02*
X10023648Y-14191676D01*
X10023648Y-14191676D02*
X10061743Y-14191676D01*
X10061743Y-14191676D02*
X10080791Y-14182152D01*
X10080791Y-14182152D02*
X10090315Y-14163105D01*
X10090315Y-14163105D02*
X10090315Y-14153581D01*
X10090315Y-14153581D02*
X10080791Y-14134533D01*
X10080791Y-14134533D02*
X10061743Y-14125009D01*
X10061743Y-14125009D02*
X10033172Y-14125009D01*
X10033172Y-14125009D02*
X10014124Y-14115486D01*
X10014124Y-14115486D02*
X10004600Y-14096438D01*
X10004600Y-14096438D02*
X10004600Y-14086914D01*
X10004600Y-14086914D02*
X10014124Y-14067867D01*
X10014124Y-14067867D02*
X10033172Y-14058343D01*
X10033172Y-14058343D02*
X10061743Y-14058343D01*
X10061743Y-14058343D02*
X10080791Y-14067867D01*
X10156981Y-14267867D02*
X10166505Y-14258343D01*
X10166505Y-14258343D02*
X10185553Y-14229771D01*
X10185553Y-14229771D02*
X10195076Y-14210724D01*
X10195076Y-14210724D02*
X10204600Y-14182152D01*
X10204600Y-14182152D02*
X10214124Y-14134533D01*
X10214124Y-14134533D02*
X10214124Y-14096438D01*
X10214124Y-14096438D02*
X10204600Y-14048819D01*
X10204600Y-14048819D02*
X10195076Y-14020248D01*
X10195076Y-14020248D02*
X10185553Y-14001200D01*
X10185553Y-14001200D02*
X10166505Y-13972628D01*
X10166505Y-13972628D02*
X10156981Y-13963105D01*
D16*
X5394600Y-14317200D02*
X5524600Y-14447200D01*
X5524600Y-14317200D02*
X5394600Y-14447200D01*
X5524600Y-14382200D02*
G75*
G03*
X5524600Y-14382200I-65000J0D01*
G01*
D11*
X5876981Y-14455676D02*
X5762695Y-14455676D01*
X5819838Y-14455676D02*
X5819838Y-14255676D01*
X5819838Y-14255676D02*
X5800790Y-14284248D01*
X5800790Y-14284248D02*
X5781743Y-14303295D01*
X5781743Y-14303295D02*
X5762695Y-14312819D01*
X5962695Y-14436628D02*
X5972219Y-14446152D01*
X5972219Y-14446152D02*
X5962695Y-14455676D01*
X5962695Y-14455676D02*
X5953171Y-14446152D01*
X5953171Y-14446152D02*
X5962695Y-14436628D01*
X5962695Y-14436628D02*
X5962695Y-14455676D01*
X6038886Y-14255676D02*
X6162695Y-14255676D01*
X6162695Y-14255676D02*
X6096028Y-14331867D01*
X6096028Y-14331867D02*
X6124600Y-14331867D01*
X6124600Y-14331867D02*
X6143648Y-14341390D01*
X6143648Y-14341390D02*
X6153171Y-14350914D01*
X6153171Y-14350914D02*
X6162695Y-14369962D01*
X6162695Y-14369962D02*
X6162695Y-14417581D01*
X6162695Y-14417581D02*
X6153171Y-14436628D01*
X6153171Y-14436628D02*
X6143648Y-14446152D01*
X6143648Y-14446152D02*
X6124600Y-14455676D01*
X6124600Y-14455676D02*
X6067457Y-14455676D01*
X6067457Y-14455676D02*
X6048409Y-14446152D01*
X6048409Y-14446152D02*
X6038886Y-14436628D01*
X6286505Y-14255676D02*
X6305552Y-14255676D01*
X6305552Y-14255676D02*
X6324600Y-14265200D01*
X6324600Y-14265200D02*
X6334124Y-14274724D01*
X6334124Y-14274724D02*
X6343648Y-14293771D01*
X6343648Y-14293771D02*
X6353171Y-14331867D01*
X6353171Y-14331867D02*
X6353171Y-14379486D01*
X6353171Y-14379486D02*
X6343648Y-14417581D01*
X6343648Y-14417581D02*
X6334124Y-14436628D01*
X6334124Y-14436628D02*
X6324600Y-14446152D01*
X6324600Y-14446152D02*
X6305552Y-14455676D01*
X6305552Y-14455676D02*
X6286505Y-14455676D01*
X6286505Y-14455676D02*
X6267457Y-14446152D01*
X6267457Y-14446152D02*
X6257933Y-14436628D01*
X6257933Y-14436628D02*
X6248409Y-14417581D01*
X6248409Y-14417581D02*
X6238886Y-14379486D01*
X6238886Y-14379486D02*
X6238886Y-14331867D01*
X6238886Y-14331867D02*
X6248409Y-14293771D01*
X6248409Y-14293771D02*
X6257933Y-14274724D01*
X6257933Y-14274724D02*
X6267457Y-14265200D01*
X6267457Y-14265200D02*
X6286505Y-14255676D01*
X6476981Y-14255676D02*
X6496029Y-14255676D01*
X6496029Y-14255676D02*
X6515076Y-14265200D01*
X6515076Y-14265200D02*
X6524600Y-14274724D01*
X6524600Y-14274724D02*
X6534124Y-14293771D01*
X6534124Y-14293771D02*
X6543648Y-14331867D01*
X6543648Y-14331867D02*
X6543648Y-14379486D01*
X6543648Y-14379486D02*
X6534124Y-14417581D01*
X6534124Y-14417581D02*
X6524600Y-14436628D01*
X6524600Y-14436628D02*
X6515076Y-14446152D01*
X6515076Y-14446152D02*
X6496029Y-14455676D01*
X6496029Y-14455676D02*
X6476981Y-14455676D01*
X6476981Y-14455676D02*
X6457933Y-14446152D01*
X6457933Y-14446152D02*
X6448409Y-14436628D01*
X6448409Y-14436628D02*
X6438886Y-14417581D01*
X6438886Y-14417581D02*
X6429362Y-14379486D01*
X6429362Y-14379486D02*
X6429362Y-14331867D01*
X6429362Y-14331867D02*
X6438886Y-14293771D01*
X6438886Y-14293771D02*
X6448409Y-14274724D01*
X6448409Y-14274724D02*
X6457933Y-14265200D01*
X6457933Y-14265200D02*
X6476981Y-14255676D01*
X6629362Y-14455676D02*
X6629362Y-14322343D01*
X6629362Y-14341390D02*
X6638886Y-14331867D01*
X6638886Y-14331867D02*
X6657933Y-14322343D01*
X6657933Y-14322343D02*
X6686505Y-14322343D01*
X6686505Y-14322343D02*
X6705552Y-14331867D01*
X6705552Y-14331867D02*
X6715076Y-14350914D01*
X6715076Y-14350914D02*
X6715076Y-14455676D01*
X6715076Y-14350914D02*
X6724600Y-14331867D01*
X6724600Y-14331867D02*
X6743648Y-14322343D01*
X6743648Y-14322343D02*
X6772219Y-14322343D01*
X6772219Y-14322343D02*
X6791267Y-14331867D01*
X6791267Y-14331867D02*
X6800790Y-14350914D01*
X6800790Y-14350914D02*
X6800790Y-14455676D01*
X6896029Y-14455676D02*
X6896029Y-14322343D01*
X6896029Y-14341390D02*
X6905552Y-14331867D01*
X6905552Y-14331867D02*
X6924600Y-14322343D01*
X6924600Y-14322343D02*
X6953171Y-14322343D01*
X6953171Y-14322343D02*
X6972219Y-14331867D01*
X6972219Y-14331867D02*
X6981743Y-14350914D01*
X6981743Y-14350914D02*
X6981743Y-14455676D01*
X6981743Y-14350914D02*
X6991267Y-14331867D01*
X6991267Y-14331867D02*
X7010314Y-14322343D01*
X7010314Y-14322343D02*
X7038886Y-14322343D01*
X7038886Y-14322343D02*
X7057933Y-14331867D01*
X7057933Y-14331867D02*
X7067457Y-14350914D01*
X7067457Y-14350914D02*
X7067457Y-14455676D01*
X7425552Y-14246152D02*
X7254124Y-14503295D01*
X7650314Y-14255676D02*
X7669362Y-14255676D01*
X7669362Y-14255676D02*
X7688410Y-14265200D01*
X7688410Y-14265200D02*
X7697933Y-14274724D01*
X7697933Y-14274724D02*
X7707457Y-14293771D01*
X7707457Y-14293771D02*
X7716981Y-14331867D01*
X7716981Y-14331867D02*
X7716981Y-14379486D01*
X7716981Y-14379486D02*
X7707457Y-14417581D01*
X7707457Y-14417581D02*
X7697933Y-14436628D01*
X7697933Y-14436628D02*
X7688410Y-14446152D01*
X7688410Y-14446152D02*
X7669362Y-14455676D01*
X7669362Y-14455676D02*
X7650314Y-14455676D01*
X7650314Y-14455676D02*
X7631267Y-14446152D01*
X7631267Y-14446152D02*
X7621743Y-14436628D01*
X7621743Y-14436628D02*
X7612219Y-14417581D01*
X7612219Y-14417581D02*
X7602695Y-14379486D01*
X7602695Y-14379486D02*
X7602695Y-14331867D01*
X7602695Y-14331867D02*
X7612219Y-14293771D01*
X7612219Y-14293771D02*
X7621743Y-14274724D01*
X7621743Y-14274724D02*
X7631267Y-14265200D01*
X7631267Y-14265200D02*
X7650314Y-14255676D01*
X7802695Y-14436628D02*
X7812219Y-14446152D01*
X7812219Y-14446152D02*
X7802695Y-14455676D01*
X7802695Y-14455676D02*
X7793171Y-14446152D01*
X7793171Y-14446152D02*
X7802695Y-14436628D01*
X7802695Y-14436628D02*
X7802695Y-14455676D01*
X7936029Y-14255676D02*
X7955076Y-14255676D01*
X7955076Y-14255676D02*
X7974124Y-14265200D01*
X7974124Y-14265200D02*
X7983648Y-14274724D01*
X7983648Y-14274724D02*
X7993171Y-14293771D01*
X7993171Y-14293771D02*
X8002695Y-14331867D01*
X8002695Y-14331867D02*
X8002695Y-14379486D01*
X8002695Y-14379486D02*
X7993171Y-14417581D01*
X7993171Y-14417581D02*
X7983648Y-14436628D01*
X7983648Y-14436628D02*
X7974124Y-14446152D01*
X7974124Y-14446152D02*
X7955076Y-14455676D01*
X7955076Y-14455676D02*
X7936029Y-14455676D01*
X7936029Y-14455676D02*
X7916981Y-14446152D01*
X7916981Y-14446152D02*
X7907457Y-14436628D01*
X7907457Y-14436628D02*
X7897933Y-14417581D01*
X7897933Y-14417581D02*
X7888410Y-14379486D01*
X7888410Y-14379486D02*
X7888410Y-14331867D01*
X7888410Y-14331867D02*
X7897933Y-14293771D01*
X7897933Y-14293771D02*
X7907457Y-14274724D01*
X7907457Y-14274724D02*
X7916981Y-14265200D01*
X7916981Y-14265200D02*
X7936029Y-14255676D01*
X8183648Y-14255676D02*
X8088410Y-14255676D01*
X8088410Y-14255676D02*
X8078886Y-14350914D01*
X8078886Y-14350914D02*
X8088410Y-14341390D01*
X8088410Y-14341390D02*
X8107457Y-14331867D01*
X8107457Y-14331867D02*
X8155076Y-14331867D01*
X8155076Y-14331867D02*
X8174124Y-14341390D01*
X8174124Y-14341390D02*
X8183648Y-14350914D01*
X8183648Y-14350914D02*
X8193171Y-14369962D01*
X8193171Y-14369962D02*
X8193171Y-14417581D01*
X8193171Y-14417581D02*
X8183648Y-14436628D01*
X8183648Y-14436628D02*
X8174124Y-14446152D01*
X8174124Y-14446152D02*
X8155076Y-14455676D01*
X8155076Y-14455676D02*
X8107457Y-14455676D01*
X8107457Y-14455676D02*
X8088410Y-14446152D01*
X8088410Y-14446152D02*
X8078886Y-14436628D01*
X8383648Y-14455676D02*
X8269362Y-14455676D01*
X8326505Y-14455676D02*
X8326505Y-14255676D01*
X8326505Y-14255676D02*
X8307457Y-14284248D01*
X8307457Y-14284248D02*
X8288410Y-14303295D01*
X8288410Y-14303295D02*
X8269362Y-14312819D01*
X8459838Y-14274724D02*
X8469362Y-14265200D01*
X8469362Y-14265200D02*
X8488410Y-14255676D01*
X8488410Y-14255676D02*
X8536029Y-14255676D01*
X8536029Y-14255676D02*
X8555076Y-14265200D01*
X8555076Y-14265200D02*
X8564600Y-14274724D01*
X8564600Y-14274724D02*
X8574124Y-14293771D01*
X8574124Y-14293771D02*
X8574124Y-14312819D01*
X8574124Y-14312819D02*
X8564600Y-14341390D01*
X8564600Y-14341390D02*
X8450314Y-14455676D01*
X8450314Y-14455676D02*
X8574124Y-14455676D01*
X8650314Y-14255676D02*
X8650314Y-14293771D01*
X8726505Y-14255676D02*
X8726505Y-14293771D01*
X8989362Y-14531867D02*
X8979838Y-14522343D01*
X8979838Y-14522343D02*
X8960791Y-14493771D01*
X8960791Y-14493771D02*
X8951267Y-14474724D01*
X8951267Y-14474724D02*
X8941743Y-14446152D01*
X8941743Y-14446152D02*
X8932219Y-14398533D01*
X8932219Y-14398533D02*
X8932219Y-14360438D01*
X8932219Y-14360438D02*
X8941743Y-14312819D01*
X8941743Y-14312819D02*
X8951267Y-14284248D01*
X8951267Y-14284248D02*
X8960791Y-14265200D01*
X8960791Y-14265200D02*
X8979838Y-14236628D01*
X8979838Y-14236628D02*
X8989362Y-14227105D01*
X9170314Y-14455676D02*
X9056029Y-14455676D01*
X9113172Y-14455676D02*
X9113172Y-14255676D01*
X9113172Y-14255676D02*
X9094124Y-14284248D01*
X9094124Y-14284248D02*
X9075076Y-14303295D01*
X9075076Y-14303295D02*
X9056029Y-14312819D01*
X9236981Y-14255676D02*
X9360791Y-14255676D01*
X9360791Y-14255676D02*
X9294124Y-14331867D01*
X9294124Y-14331867D02*
X9322695Y-14331867D01*
X9322695Y-14331867D02*
X9341743Y-14341390D01*
X9341743Y-14341390D02*
X9351267Y-14350914D01*
X9351267Y-14350914D02*
X9360791Y-14369962D01*
X9360791Y-14369962D02*
X9360791Y-14417581D01*
X9360791Y-14417581D02*
X9351267Y-14436628D01*
X9351267Y-14436628D02*
X9341743Y-14446152D01*
X9341743Y-14446152D02*
X9322695Y-14455676D01*
X9322695Y-14455676D02*
X9265553Y-14455676D01*
X9265553Y-14455676D02*
X9246505Y-14446152D01*
X9246505Y-14446152D02*
X9236981Y-14436628D01*
X9566505Y-14455676D02*
X9566505Y-14255676D01*
X9652219Y-14455676D02*
X9652219Y-14350914D01*
X9652219Y-14350914D02*
X9642695Y-14331867D01*
X9642695Y-14331867D02*
X9623648Y-14322343D01*
X9623648Y-14322343D02*
X9595076Y-14322343D01*
X9595076Y-14322343D02*
X9576029Y-14331867D01*
X9576029Y-14331867D02*
X9566505Y-14341390D01*
X9776029Y-14455676D02*
X9756981Y-14446152D01*
X9756981Y-14446152D02*
X9747457Y-14436628D01*
X9747457Y-14436628D02*
X9737934Y-14417581D01*
X9737934Y-14417581D02*
X9737934Y-14360438D01*
X9737934Y-14360438D02*
X9747457Y-14341390D01*
X9747457Y-14341390D02*
X9756981Y-14331867D01*
X9756981Y-14331867D02*
X9776029Y-14322343D01*
X9776029Y-14322343D02*
X9804600Y-14322343D01*
X9804600Y-14322343D02*
X9823648Y-14331867D01*
X9823648Y-14331867D02*
X9833172Y-14341390D01*
X9833172Y-14341390D02*
X9842695Y-14360438D01*
X9842695Y-14360438D02*
X9842695Y-14417581D01*
X9842695Y-14417581D02*
X9833172Y-14436628D01*
X9833172Y-14436628D02*
X9823648Y-14446152D01*
X9823648Y-14446152D02*
X9804600Y-14455676D01*
X9804600Y-14455676D02*
X9776029Y-14455676D01*
X9956981Y-14455676D02*
X9937934Y-14446152D01*
X9937934Y-14446152D02*
X9928410Y-14427105D01*
X9928410Y-14427105D02*
X9928410Y-14255676D01*
X10109362Y-14446152D02*
X10090315Y-14455676D01*
X10090315Y-14455676D02*
X10052219Y-14455676D01*
X10052219Y-14455676D02*
X10033172Y-14446152D01*
X10033172Y-14446152D02*
X10023648Y-14427105D01*
X10023648Y-14427105D02*
X10023648Y-14350914D01*
X10023648Y-14350914D02*
X10033172Y-14331867D01*
X10033172Y-14331867D02*
X10052219Y-14322343D01*
X10052219Y-14322343D02*
X10090315Y-14322343D01*
X10090315Y-14322343D02*
X10109362Y-14331867D01*
X10109362Y-14331867D02*
X10118886Y-14350914D01*
X10118886Y-14350914D02*
X10118886Y-14369962D01*
X10118886Y-14369962D02*
X10023648Y-14389009D01*
X10195076Y-14446152D02*
X10214124Y-14455676D01*
X10214124Y-14455676D02*
X10252219Y-14455676D01*
X10252219Y-14455676D02*
X10271267Y-14446152D01*
X10271267Y-14446152D02*
X10280791Y-14427105D01*
X10280791Y-14427105D02*
X10280791Y-14417581D01*
X10280791Y-14417581D02*
X10271267Y-14398533D01*
X10271267Y-14398533D02*
X10252219Y-14389009D01*
X10252219Y-14389009D02*
X10223648Y-14389009D01*
X10223648Y-14389009D02*
X10204600Y-14379486D01*
X10204600Y-14379486D02*
X10195076Y-14360438D01*
X10195076Y-14360438D02*
X10195076Y-14350914D01*
X10195076Y-14350914D02*
X10204600Y-14331867D01*
X10204600Y-14331867D02*
X10223648Y-14322343D01*
X10223648Y-14322343D02*
X10252219Y-14322343D01*
X10252219Y-14322343D02*
X10271267Y-14331867D01*
X10347457Y-14531867D02*
X10356981Y-14522343D01*
X10356981Y-14522343D02*
X10376029Y-14493771D01*
X10376029Y-14493771D02*
X10385553Y-14474724D01*
X10385553Y-14474724D02*
X10395076Y-14446152D01*
X10395076Y-14446152D02*
X10404600Y-14398533D01*
X10404600Y-14398533D02*
X10404600Y-14360438D01*
X10404600Y-14360438D02*
X10395076Y-14312819D01*
X10395076Y-14312819D02*
X10385553Y-14284248D01*
X10385553Y-14284248D02*
X10376029Y-14265200D01*
X10376029Y-14265200D02*
X10356981Y-14236628D01*
X10356981Y-14236628D02*
X10347457Y-14227105D01*
M02*
