G04 #@! TF.GenerationSoftware,KiCad,Pcbnew,7.0.0-da2b9df05c~171~ubuntu20.04.1*
G04 #@! TF.CreationDate,2023-05-14T20:26:20+02:00*
G04 #@! TF.ProjectId,cpumeter,6370756d-6574-4657-922e-6b696361645f,v01*
G04 #@! TF.SameCoordinates,Original*
G04 #@! TF.FileFunction,Soldermask,Top*
G04 #@! TF.FilePolarity,Negative*
%FSLAX46Y46*%
G04 Gerber Fmt 4.6, Leading zero omitted, Abs format (unit mm)*
G04 Created by KiCad (PCBNEW 7.0.0-da2b9df05c~171~ubuntu20.04.1) date 2023-05-14 20:26:20*
%MOMM*%
%LPD*%
G01*
G04 APERTURE LIST*
%ADD10R,1.600000X1.600000*%
%ADD11O,1.600000X1.600000*%
%ADD12C,3.200000*%
%ADD13C,1.600000*%
%ADD14R,2.300000X2.300000*%
%ADD15C,2.300000*%
%ADD16R,1.500000X1.500000*%
%ADD17C,1.500000*%
%ADD18R,2.600000X2.600000*%
%ADD19C,2.600000*%
%ADD20R,1.800000X1.800000*%
%ADD21C,1.800000*%
%ADD22R,2.200000X2.200000*%
%ADD23O,2.200000X2.200000*%
%ADD24C,1.700000*%
%ADD25C,1.400000*%
G04 APERTURE END LIST*
D10*
X58155999Y-79491999D03*
D11*
X58155999Y-82031999D03*
X58155999Y-84571999D03*
X58155999Y-87111999D03*
X58155999Y-89651999D03*
X58155999Y-92191999D03*
X58155999Y-94731999D03*
X58155999Y-97271999D03*
X65775999Y-97271999D03*
X65775999Y-94731999D03*
X65775999Y-92191999D03*
X65775999Y-89651999D03*
X65775999Y-87111999D03*
X65775999Y-84571999D03*
X65775999Y-82031999D03*
X65775999Y-79491999D03*
D12*
X61976000Y-116332000D03*
D13*
X69586000Y-87112000D03*
D11*
X79745999Y-87111999D03*
D10*
X137159999Y-70561999D03*
D13*
X137160000Y-68062000D03*
X177536000Y-74412000D03*
D11*
X187695999Y-74411999D03*
D13*
X168646000Y-85842000D03*
D11*
X168645999Y-96001999D03*
D13*
X152136000Y-38852000D03*
D11*
X152135999Y-49011999D03*
D14*
X106689999Y-81929999D03*
D15*
X106690000Y-92090000D03*
X106690000Y-99710000D03*
X114310000Y-97170000D03*
X114310000Y-81930000D03*
D13*
X148326000Y-93422000D03*
X148326000Y-88422000D03*
X148326000Y-47702000D03*
X148326000Y-42702000D03*
D12*
X61976000Y-40132000D03*
D16*
X190225999Y-80341999D03*
D17*
X192766000Y-77802000D03*
X195306000Y-80342000D03*
D10*
X137159999Y-47741999D03*
D13*
X137160000Y-45242000D03*
X130126000Y-47194000D03*
X130126000Y-42194000D03*
X152136000Y-69332000D03*
D11*
X152135999Y-59171999D03*
D13*
X172456000Y-97352000D03*
X172456000Y-102352000D03*
X152136000Y-115052000D03*
D11*
X152135999Y-104891999D03*
D13*
X108585000Y-110490000D03*
D11*
X108584999Y-120649999D03*
D10*
X130819999Y-51561999D03*
D11*
X130819999Y-54101999D03*
X130819999Y-56641999D03*
X130819999Y-59181999D03*
X138439999Y-59181999D03*
X138439999Y-56641999D03*
X138439999Y-54101999D03*
X138439999Y-51561999D03*
D18*
X74705999Y-97576999D03*
D19*
X79706000Y-97577000D03*
D10*
X130819999Y-74421999D03*
D11*
X130819999Y-76961999D03*
X130819999Y-79501999D03*
X130819999Y-82041999D03*
X138439999Y-82041999D03*
X138439999Y-79501999D03*
X138439999Y-76961999D03*
X138439999Y-74421999D03*
D13*
X177536000Y-49012000D03*
D11*
X187695999Y-49011999D03*
D13*
X172456000Y-69332000D03*
D11*
X172455999Y-59171999D03*
D13*
X69586000Y-78222000D03*
D11*
X79745999Y-78221999D03*
D16*
X190225999Y-54941999D03*
D17*
X192766000Y-52402000D03*
X195306000Y-54942000D03*
D13*
X172456000Y-84572000D03*
D11*
X172455999Y-94731999D03*
D13*
X153366000Y-54092000D03*
X148366000Y-54092000D03*
D12*
X209296000Y-40132000D03*
D16*
X190225999Y-48591999D03*
D17*
X192766000Y-46052000D03*
X195306000Y-48592000D03*
D20*
X108584999Y-107949999D03*
D21*
X108585000Y-105410000D03*
D13*
X153326000Y-99812000D03*
X148326000Y-99812000D03*
X148326000Y-106202000D03*
X148326000Y-111202000D03*
D16*
X190225999Y-99391999D03*
D17*
X192766000Y-96852000D03*
X195306000Y-99392000D03*
D13*
X130810000Y-93422000D03*
X130810000Y-88422000D03*
D16*
X190225999Y-93041999D03*
D17*
X192766000Y-90502000D03*
X195306000Y-93042000D03*
D22*
X95249999Y-115569999D03*
D23*
X85089999Y-115569999D03*
D18*
X204215999Y-90691999D03*
D19*
X204216000Y-85692000D03*
X204216000Y-80692000D03*
X204216000Y-75692000D03*
X204216000Y-70692000D03*
X204216000Y-65692000D03*
D16*
X190225999Y-61291999D03*
D17*
X192766000Y-58752000D03*
X195306000Y-61292000D03*
D20*
X100964999Y-107949999D03*
D21*
X100965000Y-105410000D03*
D13*
X65776000Y-76277000D03*
X65776000Y-71277000D03*
D10*
X130819999Y-97271999D03*
D11*
X130819999Y-99811999D03*
X130819999Y-102351999D03*
X130819999Y-104891999D03*
X138439999Y-104891999D03*
X138439999Y-102351999D03*
X138439999Y-99811999D03*
X138439999Y-97271999D03*
D24*
X105146000Y-70602000D03*
X105146000Y-68062000D03*
X105146000Y-65522000D03*
X105146000Y-62982000D03*
X105146000Y-60442000D03*
X105146000Y-57902000D03*
X105146000Y-55362000D03*
X105146000Y-52822000D03*
X105146000Y-50282000D03*
X105146000Y-47742000D03*
X105146000Y-45202000D03*
X84826000Y-45202000D03*
X84826000Y-47742000D03*
X84826000Y-50282000D03*
X84826000Y-52822000D03*
X84826000Y-55362000D03*
X84826000Y-57902000D03*
X84826000Y-60442000D03*
X84826000Y-62982000D03*
X84826000Y-65522000D03*
X84826000Y-68062000D03*
X84826000Y-70602000D03*
D13*
X177536000Y-61712000D03*
D11*
X187695999Y-61711999D03*
D13*
X144526000Y-114935000D03*
D11*
X144525999Y-104774999D03*
D13*
X100965000Y-110490000D03*
D11*
X100964999Y-120649999D03*
D13*
X152136000Y-84572000D03*
D11*
X152135999Y-94731999D03*
D16*
X190225999Y-42241999D03*
D17*
X192766000Y-39702000D03*
X195306000Y-42242000D03*
D10*
X64545999Y-102351999D03*
D13*
X67046000Y-102352000D03*
X174996000Y-56592000D03*
X174996000Y-51592000D03*
D10*
X69585999Y-82031999D03*
D11*
X77205999Y-82031999D03*
D13*
X144780000Y-38735000D03*
D11*
X144779999Y-48894999D03*
D13*
X168646000Y-67427000D03*
D11*
X168645999Y-57266999D03*
D13*
X144653000Y-84836000D03*
D11*
X144652999Y-94995999D03*
D20*
X92445999Y-101716999D03*
D21*
X92446000Y-99177000D03*
D16*
X92445999Y-109336999D03*
D17*
X89906000Y-106797000D03*
X92446000Y-104257000D03*
D16*
X190225999Y-67641999D03*
D17*
X192766000Y-65102000D03*
X195306000Y-67642000D03*
D10*
X157215999Y-92191999D03*
D11*
X157215999Y-94731999D03*
X157215999Y-97271999D03*
X157215999Y-99811999D03*
X157215999Y-102351999D03*
X157215999Y-104891999D03*
X157215999Y-107431999D03*
X164835999Y-107431999D03*
X164835999Y-104891999D03*
X164835999Y-102351999D03*
X164835999Y-99811999D03*
X164835999Y-97271999D03*
X164835999Y-94731999D03*
X164835999Y-92191999D03*
D10*
X169915999Y-107391999D03*
D13*
X169916000Y-104892000D03*
D12*
X209296000Y-116332000D03*
D13*
X148326000Y-60482000D03*
X148326000Y-65482000D03*
D16*
X190225999Y-105741999D03*
D17*
X192766000Y-103202000D03*
X195306000Y-105742000D03*
D13*
X130810000Y-70562000D03*
X130810000Y-65562000D03*
D25*
X183886000Y-96002000D03*
X186426000Y-96002000D03*
D10*
X138507999Y-93143112D03*
D13*
X138508000Y-90643113D03*
X144780000Y-69215000D03*
D11*
X144779999Y-59054999D03*
D13*
X177536000Y-87112000D03*
D11*
X187695999Y-87111999D03*
D10*
X157215999Y-46471999D03*
D11*
X157215999Y-49011999D03*
X157215999Y-51551999D03*
X157215999Y-54091999D03*
X157215999Y-56631999D03*
X157215999Y-59171999D03*
X157215999Y-61711999D03*
X164835999Y-61711999D03*
X164835999Y-59171999D03*
X164835999Y-56631999D03*
X164835999Y-54091999D03*
X164835999Y-51551999D03*
X164835999Y-49011999D03*
X164835999Y-46471999D03*
D22*
X114934999Y-110489999D03*
D23*
X114934999Y-120649999D03*
D25*
X183886000Y-70602000D03*
X186426000Y-70602000D03*
D16*
X190225999Y-73991999D03*
D17*
X192766000Y-71452000D03*
X195306000Y-73992000D03*
D13*
X177536000Y-99812000D03*
D11*
X187695999Y-99811999D03*
D25*
X183886000Y-108702000D03*
X186426000Y-108702000D03*
X183886000Y-83302000D03*
X186426000Y-83302000D03*
D13*
X89535000Y-82667000D03*
D11*
X89534999Y-92826999D03*
D16*
X190225999Y-112091999D03*
D17*
X192766000Y-109552000D03*
X195306000Y-112092000D03*
D22*
X93979999Y-82666999D03*
D23*
X93979999Y-92826999D03*
D25*
X183886000Y-45202000D03*
X186426000Y-45202000D03*
X183886000Y-57902000D03*
X186426000Y-57902000D03*
D13*
X177536000Y-112512000D03*
D11*
X187695999Y-112511999D03*
D10*
X157215999Y-42661999D03*
D13*
X157216000Y-40162000D03*
D10*
X83555999Y-82031999D03*
D13*
X83556000Y-84532000D03*
D16*
X190225999Y-86691999D03*
D17*
X192766000Y-84152000D03*
X195306000Y-86692000D03*
M02*
